<svg xmlns="http://www.w3.org/2000/svg" xmlns:xlink="http://www.w3.org/1999/xlink" width="500" zoomAndPan="magnify" viewBox="0 0 375 374.999991" height="500" preserveAspectRatio="xMidYMid meet" version="1.0"><defs><g/><clipPath id="2ad5131d07"><path d="M 47 158.363281 L 117 158.363281 L 117 212 L 47 212 Z M 47 158.363281 " clip-rule="nonzero"/></clipPath><clipPath id="544107e579"><path d="M 44.617188 159 L 118.867188 159 L 118.867188 220.613281 L 44.617188 220.613281 Z M 44.617188 159 " clip-rule="nonzero"/></clipPath></defs><g clip-path="url(#2ad5131d07)"><path fill="#00a3d8" d="M 85.175781 211.269531 C 96.25 206.585938 106.535156 200.351562 113.652344 187.890625 C 116.492188 182.925781 117.789062 177.226562 113.496094 172.5 C 111.171875 169.941406 108.046875 168.253906 104.660156 167.230469 L 103.105469 171.511719 C 106.046875 172.742188 108.597656 174.667969 110.128906 177.71875 C 116.625 190.628906 94 206.378906 85.175781 211.269531 Z M 78.183594 210.265625 C 74.878906 196.546875 67.554688 184.84375 54.355469 176.082031 C 51.976562 178.324219 49.597656 180.5625 47.21875 182.804688 C 62.59375 186.082031 72.324219 195.925781 78.183594 210.265625 Z M 77.453125 184.816406 L 89.34375 187.914062 L 105.234375 158.359375 L 92.105469 194.539062 Z M 77.453125 184.816406 " fill-opacity="1" fill-rule="evenodd"/></g><g clip-path="url(#544107e579)"><path fill="#002e44" d="M 53.59375 196.171875 C 51.484375 200.410156 50.96875 205.867188 54.179688 209.683594 C 57.003906 213.042969 62.101562 214.523438 67.027344 214.929688 C 70.890625 215.246094 74.792969 215.027344 78.640625 214.34375 C 76.179688 196.109375 68.601562 180.824219 50.917969 171.359375 C 61.859375 167.453125 72.800781 163.542969 83.738281 159.632812 C 88.460938 163.457031 91.597656 167.84375 93.613281 172.585938 L 91.753906 176.039062 C 89.96875 172.097656 87.519531 168.359375 84.167969 165.066406 C 77.699219 167.59375 71.230469 170.121094 64.761719 172.648438 C 75.949219 184.558594 79.8125 198.75 79.964844 214.09375 C 97.089844 210.570312 112.890625 197.855469 118.703125 181.515625 C 115 205.949219 84.96875 222.699219 61.707031 220.402344 C 55.824219 219.820312 50.265625 217.625 47.363281 212.75 C 44.074219 207.226562 46.53125 200.152344 49.742188 194.972656 C 51.074219 195.304688 52.355469 195.703125 53.59375 196.171875 Z M 75.464844 212.414062 C 71.515625 199.792969 63.34375 190.726562 50.0625 185.949219 C 48.304688 187.761719 46.542969 189.574219 44.78125 191.386719 C 56.765625 192.664062 67.289062 198.703125 75.464844 212.414062 Z M 96.652344 186.121094 C 96.964844 190.601562 96.75 195.214844 96.296875 199.824219 C 96.25 196.460938 96.035156 192.894531 95.5 189.289062 Z M 96.652344 186.121094 " fill-opacity="1" fill-rule="evenodd"/></g><g fill="#002e44" fill-opacity="1"><g transform="translate(130.56525, 193.944936)"><g><path d="M 10.03125 0 L 5.875 0 L 5.875 -16.15625 L 0.546875 -16.15625 L 0.546875 -19.625 L 15.359375 -19.625 L 15.359375 -16.15625 L 10.03125 -16.15625 Z M 10.03125 0 "/></g></g></g><g fill="#002e44" fill-opacity="1"><g transform="translate(147.1909, 193.944936)"><g><path d="M 20.28125 -9.84375 C 20.28125 -6.59375 19.472656 -4.09375 17.859375 -2.34375 C 16.253906 -0.601562 13.945312 0.265625 10.9375 0.265625 C 7.925781 0.265625 5.613281 -0.601562 4 -2.34375 C 2.394531 -4.09375 1.59375 -6.597656 1.59375 -9.859375 C 1.59375 -13.128906 2.398438 -15.625 4.015625 -17.34375 C 5.628906 -19.0625 7.945312 -19.921875 10.96875 -19.921875 C 13.976562 -19.921875 16.28125 -19.050781 17.875 -17.3125 C 19.476562 -15.582031 20.28125 -13.09375 20.28125 -9.84375 Z M 5.953125 -9.84375 C 5.953125 -7.644531 6.367188 -5.988281 7.203125 -4.875 C 8.035156 -3.769531 9.28125 -3.21875 10.9375 -3.21875 C 14.257812 -3.21875 15.921875 -5.425781 15.921875 -9.84375 C 15.921875 -14.257812 14.269531 -16.46875 10.96875 -16.46875 C 9.3125 -16.46875 8.0625 -15.910156 7.21875 -14.796875 C 6.375 -13.679688 5.953125 -12.03125 5.953125 -9.84375 Z M 5.953125 -9.84375 "/></g></g></g><g fill="#002e44" fill-opacity="1"><g transform="translate(169.773173, 193.944936)"><g><path d="M 18.75 -10 C 18.75 -6.769531 17.828125 -4.296875 15.984375 -2.578125 C 14.148438 -0.859375 11.5 0 8.03125 0 L 2.46875 0 L 2.46875 -19.625 L 8.625 -19.625 C 11.832031 -19.625 14.320312 -18.773438 16.09375 -17.078125 C 17.863281 -15.390625 18.75 -13.03125 18.75 -10 Z M 14.421875 -9.890625 C 14.421875 -14.109375 12.5625 -16.21875 8.84375 -16.21875 L 6.625 -16.21875 L 6.625 -3.4375 L 8.421875 -3.4375 C 12.421875 -3.4375 14.421875 -5.585938 14.421875 -9.890625 Z M 14.421875 -9.890625 "/></g></g></g><g fill="#002e44" fill-opacity="1"><g transform="translate(190.826045, 193.944936)"><g><path d="M 20.28125 -9.84375 C 20.28125 -6.59375 19.472656 -4.09375 17.859375 -2.34375 C 16.253906 -0.601562 13.945312 0.265625 10.9375 0.265625 C 7.925781 0.265625 5.613281 -0.601562 4 -2.34375 C 2.394531 -4.09375 1.59375 -6.597656 1.59375 -9.859375 C 1.59375 -13.128906 2.398438 -15.625 4.015625 -17.34375 C 5.628906 -19.0625 7.945312 -19.921875 10.96875 -19.921875 C 13.976562 -19.921875 16.28125 -19.050781 17.875 -17.3125 C 19.476562 -15.582031 20.28125 -13.09375 20.28125 -9.84375 Z M 5.953125 -9.84375 C 5.953125 -7.644531 6.367188 -5.988281 7.203125 -4.875 C 8.035156 -3.769531 9.28125 -3.21875 10.9375 -3.21875 C 14.257812 -3.21875 15.921875 -5.425781 15.921875 -9.84375 C 15.921875 -14.257812 14.269531 -16.46875 10.96875 -16.46875 C 9.3125 -16.46875 8.0625 -15.910156 7.21875 -14.796875 C 6.375 -13.679688 5.953125 -12.03125 5.953125 -9.84375 Z M 5.953125 -9.84375 "/></g></g></g><g fill="#002e44" fill-opacity="1"><g transform="translate(213.408316, 193.944936)"><g/></g></g><g fill="#00a3d8" fill-opacity="1"><g transform="translate(221.247875, 193.944936)"><g><path d="M 21.578125 0 L 16.84375 0 L 14.1875 -10.3125 C 14.082031 -10.675781 13.910156 -11.429688 13.671875 -12.578125 C 13.441406 -13.734375 13.304688 -14.503906 13.265625 -14.890625 C 13.210938 -14.410156 13.078125 -13.632812 12.859375 -12.5625 C 12.648438 -11.5 12.488281 -10.738281 12.375 -10.28125 L 9.734375 0 L 5 0 L 0 -19.625 L 4.09375 -19.625 L 6.609375 -8.90625 C 7.046875 -6.925781 7.363281 -5.210938 7.5625 -3.765625 C 7.613281 -4.273438 7.734375 -5.066406 7.921875 -6.140625 C 8.117188 -7.210938 8.300781 -8.039062 8.46875 -8.625 L 11.328125 -19.625 L 15.265625 -19.625 L 18.109375 -8.625 C 18.242188 -8.132812 18.40625 -7.382812 18.59375 -6.375 C 18.78125 -5.363281 18.921875 -4.492188 19.015625 -3.765625 C 19.109375 -4.460938 19.25 -5.332031 19.4375 -6.375 C 19.632812 -7.414062 19.816406 -8.257812 19.984375 -8.90625 L 22.484375 -19.625 L 26.578125 -19.625 Z M 21.578125 0 "/></g></g></g><g fill="#00a3d8" fill-opacity="1"><g transform="translate(248.525683, 193.944936)"><g><path d="M 20.28125 -9.84375 C 20.28125 -6.59375 19.472656 -4.09375 17.859375 -2.34375 C 16.253906 -0.601562 13.945312 0.265625 10.9375 0.265625 C 7.925781 0.265625 5.613281 -0.601562 4 -2.34375 C 2.394531 -4.09375 1.59375 -6.597656 1.59375 -9.859375 C 1.59375 -13.128906 2.398438 -15.625 4.015625 -17.34375 C 5.628906 -19.0625 7.945312 -19.921875 10.96875 -19.921875 C 13.976562 -19.921875 16.28125 -19.050781 17.875 -17.3125 C 19.476562 -15.582031 20.28125 -13.09375 20.28125 -9.84375 Z M 5.953125 -9.84375 C 5.953125 -7.644531 6.367188 -5.988281 7.203125 -4.875 C 8.035156 -3.769531 9.28125 -3.21875 10.9375 -3.21875 C 14.257812 -3.21875 15.921875 -5.425781 15.921875 -9.84375 C 15.921875 -14.257812 14.269531 -16.46875 10.96875 -16.46875 C 9.3125 -16.46875 8.0625 -15.910156 7.21875 -14.796875 C 6.375 -13.679688 5.953125 -12.03125 5.953125 -9.84375 Z M 5.953125 -9.84375 "/></g></g></g><g fill="#00a3d8" fill-opacity="1"><g transform="translate(271.107956, 193.944936)"><g><path d="M 6.625 -10.90625 L 7.96875 -10.90625 C 9.28125 -10.90625 10.25 -11.125 10.875 -11.5625 C 11.507812 -12 11.828125 -12.691406 11.828125 -13.640625 C 11.828125 -14.566406 11.503906 -15.226562 10.859375 -15.625 C 10.222656 -16.019531 9.234375 -16.21875 7.890625 -16.21875 L 6.625 -16.21875 Z M 6.625 -7.53125 L 6.625 0 L 2.46875 0 L 2.46875 -19.625 L 8.1875 -19.625 C 10.851562 -19.625 12.828125 -19.132812 14.109375 -18.15625 C 15.390625 -17.1875 16.03125 -15.71875 16.03125 -13.75 C 16.03125 -12.59375 15.710938 -11.5625 15.078125 -10.65625 C 14.441406 -9.757812 13.539062 -9.054688 12.375 -8.546875 C 15.320312 -4.140625 17.242188 -1.289062 18.140625 0 L 13.53125 0 L 8.84375 -7.53125 Z M 6.625 -7.53125 "/></g></g></g><g fill="#00a3d8" fill-opacity="1"><g transform="translate(289.960634, 193.944936)"><g><path d="M 18.25 0 L 13.53125 0 L 8.390625 -8.265625 L 6.625 -7 L 6.625 0 L 2.46875 0 L 2.46875 -19.625 L 6.625 -19.625 L 6.625 -10.640625 L 8.265625 -12.953125 L 13.578125 -19.625 L 18.203125 -19.625 L 11.359375 -10.9375 Z M 18.25 0 "/></g></g></g><g fill="#00a3d8" fill-opacity="1"><g transform="translate(308.920634, 193.944936)"><g><path d="M 14.046875 -5.453125 C 14.046875 -3.679688 13.40625 -2.285156 12.125 -1.265625 C 10.851562 -0.242188 9.082031 0.265625 6.8125 0.265625 C 4.71875 0.265625 2.867188 -0.125 1.265625 -0.90625 L 1.265625 -4.78125 C 2.585938 -4.1875 3.707031 -3.769531 4.625 -3.53125 C 5.539062 -3.289062 6.378906 -3.171875 7.140625 -3.171875 C 8.054688 -3.171875 8.753906 -3.34375 9.234375 -3.6875 C 9.722656 -4.039062 9.96875 -4.5625 9.96875 -5.25 C 9.96875 -5.632812 9.859375 -5.972656 9.640625 -6.265625 C 9.429688 -6.566406 9.117188 -6.859375 8.703125 -7.140625 C 8.285156 -7.421875 7.4375 -7.863281 6.15625 -8.46875 C 4.957031 -9.03125 4.054688 -9.570312 3.453125 -10.09375 C 2.859375 -10.613281 2.378906 -11.21875 2.015625 -11.90625 C 1.660156 -12.59375 1.484375 -13.394531 1.484375 -14.3125 C 1.484375 -16.050781 2.070312 -17.414062 3.25 -18.40625 C 4.425781 -19.40625 6.050781 -19.90625 8.125 -19.90625 C 9.144531 -19.90625 10.117188 -19.78125 11.046875 -19.53125 C 11.972656 -19.289062 12.941406 -18.953125 13.953125 -18.515625 L 12.609375 -15.28125 C 11.566406 -15.707031 10.703125 -16.003906 10.015625 -16.171875 C 9.328125 -16.347656 8.65625 -16.4375 8 -16.4375 C 7.207031 -16.4375 6.601562 -16.253906 6.1875 -15.890625 C 5.769531 -15.523438 5.5625 -15.046875 5.5625 -14.453125 C 5.5625 -14.085938 5.644531 -13.765625 5.8125 -13.484375 C 5.976562 -13.210938 6.25 -12.945312 6.625 -12.6875 C 7 -12.4375 7.878906 -11.984375 9.265625 -11.328125 C 11.097656 -10.453125 12.351562 -9.570312 13.03125 -8.6875 C 13.707031 -7.8125 14.046875 -6.734375 14.046875 -5.453125 Z M 14.046875 -5.453125 "/></g></g></g><g fill="#002e44" fill-opacity="1"><g transform="translate(150.952538, 209.383748)"><g><path d="M 2.546875 -4 L 3.078125 -4 C 3.566406 -4 3.929688 -4.09375 4.171875 -4.28125 C 4.421875 -4.476562 4.546875 -4.765625 4.546875 -5.140625 C 4.546875 -5.515625 4.441406 -5.789062 4.234375 -5.96875 C 4.035156 -6.144531 3.71875 -6.234375 3.28125 -6.234375 L 2.546875 -6.234375 Z M 6.171875 -5.203125 C 6.171875 -4.390625 5.914062 -3.765625 5.40625 -3.328125 C 4.894531 -2.898438 4.171875 -2.6875 3.234375 -2.6875 L 2.546875 -2.6875 L 2.546875 0 L 0.953125 0 L 0.953125 -7.546875 L 3.359375 -7.546875 C 4.273438 -7.546875 4.972656 -7.347656 5.453125 -6.953125 C 5.929688 -6.566406 6.171875 -5.984375 6.171875 -5.203125 Z M 6.171875 -5.203125 "/></g></g></g><g fill="#002e44" fill-opacity="1"><g transform="translate(161.028048, 209.383748)"><g><path d="M 4.046875 -5.890625 C 4.265625 -5.890625 4.441406 -5.875 4.578125 -5.84375 L 4.46875 -4.359375 C 4.332031 -4.390625 4.175781 -4.40625 4 -4.40625 C 3.5 -4.40625 3.109375 -4.273438 2.828125 -4.015625 C 2.546875 -3.765625 2.40625 -3.40625 2.40625 -2.9375 L 2.40625 0 L 0.828125 0 L 0.828125 -5.78125 L 2.015625 -5.78125 L 2.25 -4.796875 L 2.328125 -4.796875 C 2.503906 -5.128906 2.742188 -5.394531 3.046875 -5.59375 C 3.359375 -5.789062 3.691406 -5.890625 4.046875 -5.890625 Z M 4.046875 -5.890625 "/></g></g></g><g fill="#002e44" fill-opacity="1"><g transform="translate(169.266359, 209.383748)"><g><path d="M 2.078125 -2.890625 C 2.078125 -2.328125 2.171875 -1.894531 2.359375 -1.59375 C 2.546875 -1.300781 2.851562 -1.15625 3.28125 -1.15625 C 3.695312 -1.15625 4 -1.300781 4.1875 -1.59375 C 4.375 -1.882812 4.46875 -2.316406 4.46875 -2.890625 C 4.46875 -3.460938 4.375 -3.890625 4.1875 -4.171875 C 4 -4.460938 3.691406 -4.609375 3.265625 -4.609375 C 2.847656 -4.609375 2.546875 -4.46875 2.359375 -4.1875 C 2.171875 -3.90625 2.078125 -3.472656 2.078125 -2.890625 Z M 6.078125 -2.890625 C 6.078125 -1.953125 5.828125 -1.21875 5.328125 -0.6875 C 4.835938 -0.15625 4.148438 0.109375 3.265625 0.109375 C 2.703125 0.109375 2.207031 -0.0078125 1.78125 -0.25 C 1.363281 -0.5 1.039062 -0.847656 0.8125 -1.296875 C 0.582031 -1.753906 0.46875 -2.285156 0.46875 -2.890625 C 0.46875 -3.835938 0.710938 -4.570312 1.203125 -5.09375 C 1.703125 -5.625 2.398438 -5.890625 3.296875 -5.890625 C 3.847656 -5.890625 4.332031 -5.765625 4.75 -5.515625 C 5.175781 -5.273438 5.503906 -4.929688 5.734375 -4.484375 C 5.960938 -4.035156 6.078125 -3.503906 6.078125 -2.890625 Z M 6.078125 -2.890625 "/></g></g></g><g fill="#002e44" fill-opacity="1"><g transform="translate(179.248977, 209.383748)"><g><path d="M 2.65625 0.109375 C 1.976562 0.109375 1.441406 -0.15625 1.046875 -0.6875 C 0.660156 -1.21875 0.46875 -1.945312 0.46875 -2.875 C 0.46875 -3.820312 0.664062 -4.5625 1.0625 -5.09375 C 1.457031 -5.625 2.003906 -5.890625 2.703125 -5.890625 C 3.421875 -5.890625 3.972656 -5.601562 4.359375 -5.03125 L 4.40625 -5.03125 C 4.332031 -5.46875 4.296875 -5.851562 4.296875 -6.1875 L 4.296875 -8.03125 L 5.875 -8.03125 L 5.875 0 L 4.671875 0 L 4.359375 -0.75 L 4.296875 -0.75 C 3.929688 -0.175781 3.382812 0.109375 2.65625 0.109375 Z M 3.203125 -1.15625 C 3.609375 -1.15625 3.90625 -1.269531 4.09375 -1.5 C 4.28125 -1.738281 4.382812 -2.140625 4.40625 -2.703125 L 4.40625 -2.859375 C 4.40625 -3.484375 4.304688 -3.929688 4.109375 -4.203125 C 3.921875 -4.472656 3.613281 -4.609375 3.1875 -4.609375 C 2.832031 -4.609375 2.554688 -4.457031 2.359375 -4.15625 C 2.171875 -3.851562 2.078125 -3.421875 2.078125 -2.859375 C 2.078125 -2.285156 2.171875 -1.859375 2.359375 -1.578125 C 2.554688 -1.296875 2.835938 -1.15625 3.203125 -1.15625 Z M 3.203125 -1.15625 "/></g></g></g><g fill="#002e44" fill-opacity="1"><g transform="translate(189.376092, 209.383748)"><g><path d="M 4.921875 0 L 4.703125 -0.734375 L 4.625 -0.734375 C 4.457031 -0.460938 4.21875 -0.253906 3.90625 -0.109375 C 3.59375 0.0351562 3.238281 0.109375 2.84375 0.109375 C 2.164062 0.109375 1.65625 -0.0703125 1.3125 -0.4375 C 0.96875 -0.800781 0.796875 -1.328125 0.796875 -2.015625 L 0.796875 -5.78125 L 2.375 -5.78125 L 2.375 -2.40625 C 2.375 -1.988281 2.445312 -1.675781 2.59375 -1.46875 C 2.738281 -1.257812 2.972656 -1.15625 3.296875 -1.15625 C 3.742188 -1.15625 4.0625 -1.300781 4.25 -1.59375 C 4.445312 -1.882812 4.546875 -2.375 4.546875 -3.0625 L 4.546875 -5.78125 L 6.125 -5.78125 L 6.125 0 Z M 4.921875 0 "/></g></g></g><g fill="#002e44" fill-opacity="1"><g transform="translate(199.761241, 209.383748)"><g><path d="M 3.171875 0.109375 C 1.367188 0.109375 0.46875 -0.878906 0.46875 -2.859375 C 0.46875 -3.835938 0.710938 -4.585938 1.203125 -5.109375 C 1.691406 -5.628906 2.394531 -5.890625 3.3125 -5.890625 C 3.976562 -5.890625 4.578125 -5.753906 5.109375 -5.484375 L 4.640625 -4.265625 C 4.390625 -4.367188 4.15625 -4.453125 3.9375 -4.515625 C 3.726562 -4.578125 3.519531 -4.609375 3.3125 -4.609375 C 2.488281 -4.609375 2.078125 -4.023438 2.078125 -2.859375 C 2.078125 -1.734375 2.488281 -1.171875 3.3125 -1.171875 C 3.613281 -1.171875 3.894531 -1.210938 4.15625 -1.296875 C 4.414062 -1.378906 4.671875 -1.503906 4.921875 -1.671875 L 4.921875 -0.328125 C 4.671875 -0.160156 4.414062 -0.046875 4.15625 0.015625 C 3.894531 0.078125 3.566406 0.109375 3.171875 0.109375 Z M 3.171875 0.109375 "/></g></g></g><g fill="#002e44" fill-opacity="1"><g transform="translate(208.634318, 209.383748)"><g><path d="M 3.265625 -1.15625 C 3.535156 -1.15625 3.863281 -1.210938 4.25 -1.328125 L 4.25 -0.15625 C 3.851562 0.0195312 3.367188 0.109375 2.796875 0.109375 C 2.171875 0.109375 1.710938 -0.0507812 1.421875 -0.375 C 1.140625 -0.695312 1 -1.175781 1 -1.8125 L 1 -4.59375 L 0.25 -4.59375 L 0.25 -5.265625 L 1.109375 -5.78125 L 1.5625 -7 L 2.578125 -7 L 2.578125 -5.78125 L 4.1875 -5.78125 L 4.1875 -4.59375 L 2.578125 -4.59375 L 2.578125 -1.8125 C 2.578125 -1.582031 2.640625 -1.414062 2.765625 -1.3125 C 2.890625 -1.207031 3.054688 -1.15625 3.265625 -1.15625 Z M 3.265625 -1.15625 "/></g></g></g><g fill="#002e44" fill-opacity="1"><g transform="translate(216.661045, 209.383748)"><g><path d="M 0.765625 -7.265625 C 0.765625 -7.773438 1.046875 -8.03125 1.609375 -8.03125 C 2.179688 -8.03125 2.46875 -7.773438 2.46875 -7.265625 C 2.46875 -7.023438 2.394531 -6.835938 2.25 -6.703125 C 2.113281 -6.566406 1.898438 -6.5 1.609375 -6.5 C 1.046875 -6.5 0.765625 -6.753906 0.765625 -7.265625 Z M 2.40625 0 L 0.828125 0 L 0.828125 -5.78125 L 2.40625 -5.78125 Z M 2.40625 0 "/></g></g></g><g fill="#002e44" fill-opacity="1"><g transform="translate(223.325356, 209.383748)"><g><path d="M 2.203125 0 L 0 -5.78125 L 1.640625 -5.78125 L 2.765625 -2.484375 C 2.890625 -2.066406 2.96875 -1.671875 3 -1.296875 L 3.03125 -1.296875 C 3.039062 -1.628906 3.117188 -2.023438 3.265625 -2.484375 L 4.375 -5.78125 L 6.015625 -5.78125 L 3.8125 0 Z M 2.203125 0 "/></g></g></g><g fill="#002e44" fill-opacity="1"><g transform="translate(232.776428, 209.383748)"><g><path d="M 0.765625 -7.265625 C 0.765625 -7.773438 1.046875 -8.03125 1.609375 -8.03125 C 2.179688 -8.03125 2.46875 -7.773438 2.46875 -7.265625 C 2.46875 -7.023438 2.394531 -6.835938 2.25 -6.703125 C 2.113281 -6.566406 1.898438 -6.5 1.609375 -6.5 C 1.046875 -6.5 0.765625 -6.753906 0.765625 -7.265625 Z M 2.40625 0 L 0.828125 0 L 0.828125 -5.78125 L 2.40625 -5.78125 Z M 2.40625 0 "/></g></g></g><g fill="#002e44" fill-opacity="1"><g transform="translate(239.440738, 209.383748)"><g><path d="M 3.265625 -1.15625 C 3.535156 -1.15625 3.863281 -1.210938 4.25 -1.328125 L 4.25 -0.15625 C 3.851562 0.0195312 3.367188 0.109375 2.796875 0.109375 C 2.171875 0.109375 1.710938 -0.0507812 1.421875 -0.375 C 1.140625 -0.695312 1 -1.175781 1 -1.8125 L 1 -4.59375 L 0.25 -4.59375 L 0.25 -5.265625 L 1.109375 -5.78125 L 1.5625 -7 L 2.578125 -7 L 2.578125 -5.78125 L 4.1875 -5.78125 L 4.1875 -4.59375 L 2.578125 -4.59375 L 2.578125 -1.8125 C 2.578125 -1.582031 2.640625 -1.414062 2.765625 -1.3125 C 2.890625 -1.207031 3.054688 -1.15625 3.265625 -1.15625 Z M 3.265625 -1.15625 "/></g></g></g><g fill="#002e44" fill-opacity="1"><g transform="translate(247.467466, 209.383748)"><g><path d="M 0 -5.78125 L 1.71875 -5.78125 L 2.8125 -2.53125 C 2.90625 -2.25 2.96875 -1.914062 3 -1.53125 L 3.03125 -1.53125 C 3.070312 -1.882812 3.148438 -2.21875 3.265625 -2.53125 L 4.328125 -5.78125 L 6.015625 -5.78125 L 3.578125 0.734375 C 3.347656 1.335938 3.023438 1.789062 2.609375 2.09375 C 2.203125 2.394531 1.71875 2.546875 1.15625 2.546875 C 0.882812 2.546875 0.617188 2.515625 0.359375 2.453125 L 0.359375 1.203125 C 0.546875 1.242188 0.753906 1.265625 0.984375 1.265625 C 1.265625 1.265625 1.507812 1.179688 1.71875 1.015625 C 1.925781 0.847656 2.085938 0.59375 2.203125 0.25 L 2.296875 -0.046875 Z M 0 -5.78125 "/></g></g></g><g fill="#002e44" fill-opacity="1"><g transform="translate(256.918544, 209.383748)"><g/></g></g><g fill="#002e44" fill-opacity="1"><g transform="translate(263.102906, 209.383748)"><g><path d="M 5.40625 -2.09375 C 5.40625 -1.414062 5.160156 -0.878906 4.671875 -0.484375 C 4.179688 -0.0859375 3.5 0.109375 2.625 0.109375 C 1.820312 0.109375 1.109375 -0.0390625 0.484375 -0.34375 L 0.484375 -1.84375 C 0.992188 -1.613281 1.425781 -1.453125 1.78125 -1.359375 C 2.132812 -1.265625 2.457031 -1.21875 2.75 -1.21875 C 3.101562 -1.21875 3.375 -1.285156 3.5625 -1.421875 C 3.75 -1.554688 3.84375 -1.753906 3.84375 -2.015625 C 3.84375 -2.160156 3.800781 -2.289062 3.71875 -2.40625 C 3.632812 -2.53125 3.507812 -2.644531 3.34375 -2.75 C 3.1875 -2.851562 2.863281 -3.023438 2.375 -3.265625 C 1.90625 -3.472656 1.554688 -3.675781 1.328125 -3.875 C 1.097656 -4.082031 0.914062 -4.316406 0.78125 -4.578125 C 0.644531 -4.847656 0.578125 -5.160156 0.578125 -5.515625 C 0.578125 -6.179688 0.800781 -6.703125 1.25 -7.078125 C 1.707031 -7.460938 2.332031 -7.65625 3.125 -7.65625 C 3.519531 -7.65625 3.894531 -7.609375 4.25 -7.515625 C 4.601562 -7.421875 4.976562 -7.289062 5.375 -7.125 L 4.859375 -5.890625 C 4.453125 -6.046875 4.113281 -6.15625 3.84375 -6.21875 C 3.582031 -6.289062 3.328125 -6.328125 3.078125 -6.328125 C 2.773438 -6.328125 2.539062 -6.253906 2.375 -6.109375 C 2.21875 -5.972656 2.140625 -5.789062 2.140625 -5.5625 C 2.140625 -5.414062 2.171875 -5.289062 2.234375 -5.1875 C 2.296875 -5.082031 2.398438 -4.976562 2.546875 -4.875 C 2.691406 -4.78125 3.03125 -4.609375 3.5625 -4.359375 C 4.269531 -4.023438 4.753906 -3.6875 5.015625 -3.34375 C 5.273438 -3 5.40625 -2.582031 5.40625 -2.09375 Z M 5.40625 -2.09375 "/></g></g></g><g fill="#002e44" fill-opacity="1"><g transform="translate(272.363028, 209.383748)"><g><path d="M 4.921875 0 L 4.703125 -0.734375 L 4.625 -0.734375 C 4.457031 -0.460938 4.21875 -0.253906 3.90625 -0.109375 C 3.59375 0.0351562 3.238281 0.109375 2.84375 0.109375 C 2.164062 0.109375 1.65625 -0.0703125 1.3125 -0.4375 C 0.96875 -0.800781 0.796875 -1.328125 0.796875 -2.015625 L 0.796875 -5.78125 L 2.375 -5.78125 L 2.375 -2.40625 C 2.375 -1.988281 2.445312 -1.675781 2.59375 -1.46875 C 2.738281 -1.257812 2.972656 -1.15625 3.296875 -1.15625 C 3.742188 -1.15625 4.0625 -1.300781 4.25 -1.59375 C 4.445312 -1.882812 4.546875 -2.375 4.546875 -3.0625 L 4.546875 -5.78125 L 6.125 -5.78125 L 6.125 0 Z M 4.921875 0 "/></g></g></g><g fill="#002e44" fill-opacity="1"><g transform="translate(282.748177, 209.383748)"><g><path d="M 0.765625 -7.265625 C 0.765625 -7.773438 1.046875 -8.03125 1.609375 -8.03125 C 2.179688 -8.03125 2.46875 -7.773438 2.46875 -7.265625 C 2.46875 -7.023438 2.394531 -6.835938 2.25 -6.703125 C 2.113281 -6.566406 1.898438 -6.5 1.609375 -6.5 C 1.046875 -6.5 0.765625 -6.753906 0.765625 -7.265625 Z M 2.40625 0 L 0.828125 0 L 0.828125 -5.78125 L 2.40625 -5.78125 Z M 2.40625 0 "/></g></g></g><g fill="#002e44" fill-opacity="1"><g transform="translate(289.412487, 209.383748)"><g><path d="M 3.265625 -1.15625 C 3.535156 -1.15625 3.863281 -1.210938 4.25 -1.328125 L 4.25 -0.15625 C 3.851562 0.0195312 3.367188 0.109375 2.796875 0.109375 C 2.171875 0.109375 1.710938 -0.0507812 1.421875 -0.375 C 1.140625 -0.695312 1 -1.175781 1 -1.8125 L 1 -4.59375 L 0.25 -4.59375 L 0.25 -5.265625 L 1.109375 -5.78125 L 1.5625 -7 L 2.578125 -7 L 2.578125 -5.78125 L 4.1875 -5.78125 L 4.1875 -4.59375 L 2.578125 -4.59375 L 2.578125 -1.8125 C 2.578125 -1.582031 2.640625 -1.414062 2.765625 -1.3125 C 2.890625 -1.207031 3.054688 -1.15625 3.265625 -1.15625 Z M 3.265625 -1.15625 "/></g></g></g><g fill="#002e44" fill-opacity="1"><g transform="translate(297.439214, 209.383748)"><g><path d="M 3.21875 -4.765625 C 2.882812 -4.765625 2.625 -4.65625 2.4375 -4.4375 C 2.25 -4.226562 2.140625 -3.929688 2.109375 -3.546875 L 4.3125 -3.546875 C 4.3125 -3.929688 4.210938 -4.226562 4.015625 -4.4375 C 3.816406 -4.65625 3.550781 -4.765625 3.21875 -4.765625 Z M 3.4375 0.109375 C 2.507812 0.109375 1.78125 -0.144531 1.25 -0.65625 C 0.726562 -1.175781 0.46875 -1.90625 0.46875 -2.84375 C 0.46875 -3.8125 0.707031 -4.5625 1.1875 -5.09375 C 1.675781 -5.625 2.347656 -5.890625 3.203125 -5.890625 C 4.023438 -5.890625 4.660156 -5.65625 5.109375 -5.1875 C 5.566406 -4.71875 5.796875 -4.078125 5.796875 -3.265625 L 5.796875 -2.5 L 2.078125 -2.5 C 2.085938 -2.050781 2.21875 -1.695312 2.46875 -1.4375 C 2.71875 -1.1875 3.066406 -1.0625 3.515625 -1.0625 C 3.859375 -1.0625 4.1875 -1.097656 4.5 -1.171875 C 4.8125 -1.242188 5.132812 -1.363281 5.46875 -1.53125 L 5.46875 -0.3125 C 5.195312 -0.164062 4.898438 -0.0625 4.578125 0 C 4.265625 0.0703125 3.882812 0.109375 3.4375 0.109375 Z M 3.4375 0.109375 "/></g></g></g></svg>