<svg xmlns="http://www.w3.org/2000/svg" xmlns:xlink="http://www.w3.org/1999/xlink" width="500" zoomAndPan="magnify" viewBox="0 0 375 374.999991" height="500" preserveAspectRatio="xMidYMid meet" version="1.0"><defs><g/><clipPath id="aa4eeb498c"><path d="M 124 101.933594 L 251 101.933594 L 251 199 L 124 199 Z M 124 101.933594 " clip-rule="nonzero"/></clipPath><clipPath id="4714b04ec7"><path d="M 119.242188 104 L 255.742188 104 L 255.742188 215.933594 L 119.242188 215.933594 Z M 119.242188 104 " clip-rule="nonzero"/></clipPath></defs><g clip-path="url(#aa4eeb498c)"><path fill="#ffffff" d="M 193.804688 198.820312 C 214.164062 190.246094 233.070312 178.828125 246.15625 156.007812 C 251.375 146.914062 253.757812 136.480469 245.867188 127.824219 C 241.589844 123.140625 235.84375 120.050781 229.617188 118.171875 L 226.761719 126.015625 C 232.175781 128.269531 236.859375 131.796875 239.679688 137.378906 C 251.621094 161.023438 210.023438 189.863281 193.804688 198.820312 Z M 180.949219 196.988281 C 174.875 171.863281 161.410156 150.425781 137.140625 134.382812 C 132.769531 138.488281 128.398438 142.589844 124.027344 146.695312 C 152.292969 152.695312 170.175781 170.726562 180.949219 196.988281 Z M 179.605469 150.382812 L 201.464844 156.054688 L 230.675781 101.933594 L 206.542969 168.1875 Z M 179.605469 150.382812 " fill-opacity="1" fill-rule="evenodd"/></g><g clip-path="url(#4714b04ec7)"><path fill="#ffffff" d="M 135.742188 171.175781 C 131.871094 178.941406 130.917969 188.929688 136.820312 195.921875 C 142.015625 202.074219 151.382812 204.785156 160.441406 205.523438 C 167.542969 206.105469 174.714844 205.707031 181.789062 204.457031 C 177.265625 171.0625 163.335938 143.066406 130.828125 125.738281 C 150.941406 118.578125 171.054688 111.417969 191.164062 104.257812 C 199.84375 111.261719 205.609375 119.296875 209.3125 127.984375 L 205.898438 134.308594 C 202.617188 127.085938 198.109375 120.242188 191.949219 114.214844 C 180.058594 118.839844 168.167969 123.46875 156.273438 128.097656 C 176.84375 149.910156 183.945312 175.894531 184.222656 203.996094 C 215.707031 197.542969 244.753906 174.257812 255.433594 144.335938 C 248.632812 189.082031 193.425781 219.757812 150.660156 215.546875 C 139.847656 214.484375 129.628906 210.460938 124.292969 201.535156 C 118.246094 191.417969 122.761719 178.464844 128.667969 168.980469 C 131.109375 169.585938 133.46875 170.320312 135.742188 171.175781 Z M 175.949219 200.917969 C 168.695312 177.808594 153.667969 161.207031 129.253906 152.457031 C 126.019531 155.777344 122.78125 159.09375 119.546875 162.410156 C 141.578125 164.75 160.921875 175.808594 175.949219 200.917969 Z M 214.902344 152.765625 C 215.472656 160.972656 215.078125 169.417969 214.25 177.863281 C 214.160156 171.703125 213.769531 165.175781 212.785156 158.574219 Z M 214.902344 152.765625 " fill-opacity="1" fill-rule="evenodd"/></g><g fill="#ffffff" fill-opacity="1"><g transform="translate(74.596667, 253.332171)"><g><path d="M 11.703125 0 L 6.859375 0 L 6.859375 -18.84375 L 0.640625 -18.84375 L 0.640625 -22.890625 L 17.921875 -22.890625 L 17.921875 -18.84375 L 11.703125 -18.84375 Z M 11.703125 0 "/></g></g></g><g fill="#ffffff" fill-opacity="1"><g transform="translate(93.997826, 253.332171)"><g><path d="M 23.65625 -11.46875 C 23.65625 -7.6875 22.710938 -4.773438 20.828125 -2.734375 C 18.953125 -0.703125 16.265625 0.3125 12.765625 0.3125 C 9.253906 0.3125 6.554688 -0.703125 4.671875 -2.734375 C 2.796875 -4.773438 1.859375 -7.695312 1.859375 -11.5 C 1.859375 -15.3125 2.800781 -18.222656 4.6875 -20.234375 C 6.570312 -22.242188 9.273438 -23.25 12.796875 -23.25 C 16.304688 -23.25 18.992188 -22.234375 20.859375 -20.203125 C 22.722656 -18.179688 23.65625 -15.269531 23.65625 -11.46875 Z M 6.953125 -11.46875 C 6.953125 -8.914062 7.4375 -6.988281 8.40625 -5.6875 C 9.375 -4.394531 10.828125 -3.75 12.765625 -3.75 C 16.628906 -3.75 18.5625 -6.320312 18.5625 -11.46875 C 18.5625 -16.625 16.640625 -19.203125 12.796875 -19.203125 C 10.859375 -19.203125 9.398438 -18.550781 8.421875 -17.25 C 7.441406 -15.957031 6.953125 -14.03125 6.953125 -11.46875 Z M 6.953125 -11.46875 "/></g></g></g><g fill="#ffffff" fill-opacity="1"><g transform="translate(120.350034, 253.332171)"><g><path d="M 21.875 -11.65625 C 21.875 -7.894531 20.800781 -5.007812 18.65625 -3 C 16.507812 -1 13.410156 0 9.359375 0 L 2.875 0 L 2.875 -22.890625 L 10.0625 -22.890625 C 13.800781 -22.890625 16.703125 -21.898438 18.765625 -19.921875 C 20.835938 -17.953125 21.875 -15.195312 21.875 -11.65625 Z M 16.828125 -11.53125 C 16.828125 -16.445312 14.65625 -18.90625 10.3125 -18.90625 L 7.734375 -18.90625 L 7.734375 -4.015625 L 9.8125 -4.015625 C 14.488281 -4.015625 16.828125 -6.519531 16.828125 -11.53125 Z M 16.828125 -11.53125 "/></g></g></g><g fill="#ffffff" fill-opacity="1"><g transform="translate(144.917516, 253.332171)"><g><path d="M 23.65625 -11.46875 C 23.65625 -7.6875 22.710938 -4.773438 20.828125 -2.734375 C 18.953125 -0.703125 16.265625 0.3125 12.765625 0.3125 C 9.253906 0.3125 6.554688 -0.703125 4.671875 -2.734375 C 2.796875 -4.773438 1.859375 -7.695312 1.859375 -11.5 C 1.859375 -15.3125 2.800781 -18.222656 4.6875 -20.234375 C 6.570312 -22.242188 9.273438 -23.25 12.796875 -23.25 C 16.304688 -23.25 18.992188 -22.234375 20.859375 -20.203125 C 22.722656 -18.179688 23.65625 -15.269531 23.65625 -11.46875 Z M 6.953125 -11.46875 C 6.953125 -8.914062 7.4375 -6.988281 8.40625 -5.6875 C 9.375 -4.394531 10.828125 -3.75 12.765625 -3.75 C 16.628906 -3.75 18.5625 -6.320312 18.5625 -11.46875 C 18.5625 -16.625 16.640625 -19.203125 12.796875 -19.203125 C 10.859375 -19.203125 9.398438 -18.550781 8.421875 -17.25 C 7.441406 -15.957031 6.953125 -14.03125 6.953125 -11.46875 Z M 6.953125 -11.46875 "/></g></g></g><g fill="#ffffff" fill-opacity="1"><g transform="translate(171.269722, 253.332171)"><g/></g></g><g fill="#ffffff" fill-opacity="1"><g transform="translate(180.43217, 253.332171)"><g><path d="M 25.171875 0 L 19.640625 0 L 16.546875 -12.03125 C 16.429688 -12.457031 16.234375 -13.335938 15.953125 -14.671875 C 15.679688 -16.015625 15.523438 -16.914062 15.484375 -17.375 C 15.421875 -16.8125 15.265625 -15.90625 15.015625 -14.65625 C 14.765625 -13.414062 14.570312 -12.523438 14.4375 -11.984375 L 11.34375 0 L 5.84375 0 L 0 -22.890625 L 4.78125 -22.890625 L 7.703125 -10.390625 C 8.210938 -8.085938 8.582031 -6.09375 8.8125 -4.40625 C 8.875 -5 9.015625 -5.914062 9.234375 -7.15625 C 9.460938 -8.40625 9.675781 -9.375 9.875 -10.0625 L 13.21875 -22.890625 L 17.796875 -22.890625 L 21.140625 -10.0625 C 21.285156 -9.488281 21.46875 -8.613281 21.6875 -7.4375 C 21.90625 -6.257812 22.070312 -5.25 22.1875 -4.40625 C 22.289062 -5.21875 22.457031 -6.226562 22.6875 -7.4375 C 22.914062 -8.65625 23.125 -9.640625 23.3125 -10.390625 L 26.21875 -22.890625 L 31 -22.890625 Z M 25.171875 0 "/></g></g></g><g fill="#ffffff" fill-opacity="1"><g transform="translate(212.263806, 253.332171)"><g><path d="M 23.65625 -11.46875 C 23.65625 -7.6875 22.710938 -4.773438 20.828125 -2.734375 C 18.953125 -0.703125 16.265625 0.3125 12.765625 0.3125 C 9.253906 0.3125 6.554688 -0.703125 4.671875 -2.734375 C 2.796875 -4.773438 1.859375 -7.695312 1.859375 -11.5 C 1.859375 -15.3125 2.800781 -18.222656 4.6875 -20.234375 C 6.570312 -22.242188 9.273438 -23.25 12.796875 -23.25 C 16.304688 -23.25 18.992188 -22.234375 20.859375 -20.203125 C 22.722656 -18.179688 23.65625 -15.269531 23.65625 -11.46875 Z M 6.953125 -11.46875 C 6.953125 -8.914062 7.4375 -6.988281 8.40625 -5.6875 C 9.375 -4.394531 10.828125 -3.75 12.765625 -3.75 C 16.628906 -3.75 18.5625 -6.320312 18.5625 -11.46875 C 18.5625 -16.625 16.640625 -19.203125 12.796875 -19.203125 C 10.859375 -19.203125 9.398438 -18.550781 8.421875 -17.25 C 7.441406 -15.957031 6.953125 -14.03125 6.953125 -11.46875 Z M 6.953125 -11.46875 "/></g></g></g><g fill="#ffffff" fill-opacity="1"><g transform="translate(238.616011, 253.332171)"><g><path d="M 7.734375 -12.734375 L 9.296875 -12.734375 C 10.828125 -12.734375 11.957031 -12.988281 12.6875 -13.5 C 13.425781 -14.007812 13.796875 -14.8125 13.796875 -15.90625 C 13.796875 -16.988281 13.421875 -17.757812 12.671875 -18.21875 C 11.921875 -18.675781 10.765625 -18.90625 9.203125 -18.90625 L 7.734375 -18.90625 Z M 7.734375 -8.78125 L 7.734375 0 L 2.875 0 L 2.875 -22.890625 L 9.546875 -22.890625 C 12.660156 -22.890625 14.960938 -22.320312 16.453125 -21.1875 C 17.941406 -20.050781 18.6875 -18.332031 18.6875 -16.03125 C 18.6875 -14.6875 18.316406 -13.488281 17.578125 -12.4375 C 16.835938 -11.382812 15.789062 -10.5625 14.4375 -9.96875 C 17.875 -4.820312 20.117188 -1.5 21.171875 0 L 15.78125 0 L 10.3125 -8.78125 Z M 7.734375 -8.78125 "/></g></g></g><g fill="#ffffff" fill-opacity="1"><g transform="translate(260.615983, 253.332171)"><g><path d="M 21.296875 0 L 15.78125 0 L 9.78125 -9.640625 L 7.734375 -8.171875 L 7.734375 0 L 2.875 0 L 2.875 -22.890625 L 7.734375 -22.890625 L 7.734375 -12.421875 L 9.640625 -15.109375 L 15.84375 -22.890625 L 21.234375 -22.890625 L 13.25 -12.765625 Z M 21.296875 0 "/></g></g></g><g fill="#ffffff" fill-opacity="1"><g transform="translate(282.741199, 253.332171)"><g><path d="M 16.390625 -6.359375 C 16.390625 -4.285156 15.644531 -2.65625 14.15625 -1.46875 C 12.664062 -0.28125 10.597656 0.3125 7.953125 0.3125 C 5.515625 0.3125 3.351562 -0.144531 1.46875 -1.0625 L 1.46875 -5.578125 C 3.007812 -4.890625 4.316406 -4.398438 5.390625 -4.109375 C 6.460938 -3.828125 7.441406 -3.6875 8.328125 -3.6875 C 9.390625 -3.6875 10.203125 -3.890625 10.765625 -4.296875 C 11.335938 -4.710938 11.625 -5.320312 11.625 -6.125 C 11.625 -6.570312 11.5 -6.96875 11.25 -7.3125 C 11 -7.664062 10.628906 -8.003906 10.140625 -8.328125 C 9.660156 -8.648438 8.675781 -9.164062 7.1875 -9.875 C 5.789062 -10.53125 4.738281 -11.160156 4.03125 -11.765625 C 3.332031 -12.378906 2.773438 -13.085938 2.359375 -13.890625 C 1.941406 -14.691406 1.734375 -15.628906 1.734375 -16.703125 C 1.734375 -18.722656 2.421875 -20.3125 3.796875 -21.46875 C 5.171875 -22.632812 7.066406 -23.21875 9.484375 -23.21875 C 10.671875 -23.21875 11.804688 -23.078125 12.890625 -22.796875 C 13.972656 -22.515625 15.101562 -22.117188 16.28125 -21.609375 L 14.71875 -17.828125 C 13.5 -18.328125 12.488281 -18.675781 11.6875 -18.875 C 10.882812 -19.070312 10.097656 -19.171875 9.328125 -19.171875 C 8.410156 -19.171875 7.707031 -18.957031 7.21875 -18.53125 C 6.726562 -18.101562 6.484375 -17.546875 6.484375 -16.859375 C 6.484375 -16.429688 6.582031 -16.054688 6.78125 -15.734375 C 6.976562 -15.421875 7.289062 -15.113281 7.71875 -14.8125 C 8.15625 -14.519531 9.179688 -13.988281 10.796875 -13.21875 C 12.941406 -12.1875 14.410156 -11.15625 15.203125 -10.125 C 15.992188 -9.101562 16.390625 -7.847656 16.390625 -6.359375 Z M 16.390625 -6.359375 "/></g></g></g><g fill="#ffffff" fill-opacity="1"><g transform="translate(103.273159, 270.857442)"><g><path d="M 6.796875 -6.25 C 6.796875 -5.351562 6.488281 -4.664062 5.875 -4.1875 C 5.269531 -3.707031 4.398438 -3.46875 3.265625 -3.46875 L 2.234375 -3.46875 L 2.234375 0 L 1.21875 0 L 1.21875 -8.8125 L 3.5 -8.8125 C 5.695312 -8.8125 6.796875 -7.957031 6.796875 -6.25 Z M 2.234375 -4.34375 L 3.15625 -4.34375 C 4.0625 -4.34375 4.71875 -4.488281 5.125 -4.78125 C 5.53125 -5.070312 5.734375 -5.546875 5.734375 -6.203125 C 5.734375 -6.773438 5.539062 -7.203125 5.15625 -7.484375 C 4.78125 -7.773438 4.1875 -7.921875 3.375 -7.921875 L 2.234375 -7.921875 Z M 2.234375 -4.34375 "/></g></g></g><g fill="#ffffff" fill-opacity="1"><g transform="translate(114.71511, 270.857442)"><g><path d="M 4.078125 -6.71875 C 4.367188 -6.71875 4.628906 -6.695312 4.859375 -6.65625 L 4.71875 -5.71875 C 4.445312 -5.78125 4.207031 -5.8125 4 -5.8125 C 3.46875 -5.8125 3.007812 -5.59375 2.625 -5.15625 C 2.25 -4.726562 2.0625 -4.191406 2.0625 -3.546875 L 2.0625 0 L 1.0625 0 L 1.0625 -6.609375 L 1.890625 -6.609375 L 2 -5.375 L 2.046875 -5.375 C 2.296875 -5.8125 2.59375 -6.144531 2.9375 -6.375 C 3.28125 -6.601562 3.660156 -6.71875 4.078125 -6.71875 Z M 4.078125 -6.71875 "/></g></g></g><g fill="#ffffff" fill-opacity="1"><g transform="translate(123.765007, 270.857442)"><g><path d="M 6.765625 -3.3125 C 6.765625 -2.226562 6.492188 -1.382812 5.953125 -0.78125 C 5.410156 -0.175781 4.660156 0.125 3.703125 0.125 C 3.109375 0.125 2.582031 -0.015625 2.125 -0.296875 C 1.664062 -0.578125 1.3125 -0.972656 1.0625 -1.484375 C 0.8125 -2.003906 0.6875 -2.613281 0.6875 -3.3125 C 0.6875 -4.382812 0.957031 -5.21875 1.5 -5.8125 C 2.039062 -6.414062 2.789062 -6.71875 3.75 -6.71875 C 4.664062 -6.71875 5.394531 -6.410156 5.9375 -5.796875 C 6.488281 -5.179688 6.765625 -4.351562 6.765625 -3.3125 Z M 1.734375 -3.3125 C 1.734375 -2.46875 1.898438 -1.820312 2.234375 -1.375 C 2.578125 -0.9375 3.070312 -0.71875 3.71875 -0.71875 C 4.375 -0.71875 4.867188 -0.9375 5.203125 -1.375 C 5.546875 -1.8125 5.71875 -2.457031 5.71875 -3.3125 C 5.71875 -4.144531 5.546875 -4.78125 5.203125 -5.21875 C 4.867188 -5.65625 4.375 -5.875 3.71875 -5.875 C 3.0625 -5.875 2.566406 -5.660156 2.234375 -5.234375 C 1.898438 -4.804688 1.734375 -4.164062 1.734375 -3.3125 Z M 1.734375 -3.3125 "/></g></g></g><g fill="#ffffff" fill-opacity="1"><g transform="translate(135.23106, 270.857442)"><g><path d="M 5.5625 -0.890625 L 5.5 -0.890625 C 5.039062 -0.210938 4.347656 0.125 3.421875 0.125 C 2.566406 0.125 1.894531 -0.171875 1.40625 -0.765625 C 0.925781 -1.359375 0.6875 -2.195312 0.6875 -3.28125 C 0.6875 -4.375 0.925781 -5.21875 1.40625 -5.8125 C 1.894531 -6.414062 2.566406 -6.71875 3.421875 -6.71875 C 4.328125 -6.71875 5.015625 -6.394531 5.484375 -5.75 L 5.5625 -5.75 L 5.5 -6.6875 L 5.5 -9.375 L 6.5 -9.375 L 6.5 0 L 5.6875 0 Z M 3.5625 -0.71875 C 4.238281 -0.71875 4.726562 -0.898438 5.03125 -1.265625 C 5.34375 -1.640625 5.5 -2.242188 5.5 -3.078125 L 5.5 -3.28125 C 5.5 -4.21875 5.34375 -4.882812 5.03125 -5.28125 C 4.71875 -5.6875 4.222656 -5.890625 3.546875 -5.890625 C 2.953125 -5.890625 2.5 -5.660156 2.1875 -5.203125 C 1.882812 -4.742188 1.734375 -4.097656 1.734375 -3.265625 C 1.734375 -2.421875 1.882812 -1.785156 2.1875 -1.359375 C 2.5 -0.929688 2.957031 -0.71875 3.5625 -0.71875 Z M 3.5625 -0.71875 "/></g></g></g><g fill="#ffffff" fill-opacity="1"><g transform="translate(146.805568, 270.857442)"><g><path d="M 2 -6.609375 L 2 -2.328125 C 2 -1.785156 2.117188 -1.378906 2.359375 -1.109375 C 2.609375 -0.847656 2.992188 -0.71875 3.515625 -0.71875 C 4.210938 -0.71875 4.71875 -0.90625 5.03125 -1.28125 C 5.351562 -1.65625 5.515625 -2.273438 5.515625 -3.140625 L 5.515625 -6.609375 L 6.515625 -6.609375 L 6.515625 0 L 5.6875 0 L 5.546875 -0.890625 L 5.484375 -0.890625 C 5.285156 -0.554688 5.003906 -0.300781 4.640625 -0.125 C 4.273438 0.0390625 3.859375 0.125 3.390625 0.125 C 2.585938 0.125 1.984375 -0.0664062 1.578125 -0.453125 C 1.179688 -0.835938 0.984375 -1.445312 0.984375 -2.28125 L 0.984375 -6.609375 Z M 2 -6.609375 "/></g></g></g><g fill="#ffffff" fill-opacity="1"><g transform="translate(158.39213, 270.857442)"><g><path d="M 3.703125 0.125 C 2.742188 0.125 2 -0.164062 1.46875 -0.75 C 0.945312 -1.34375 0.6875 -2.179688 0.6875 -3.265625 C 0.6875 -4.367188 0.953125 -5.21875 1.484375 -5.8125 C 2.023438 -6.414062 2.785156 -6.71875 3.765625 -6.71875 C 4.085938 -6.71875 4.40625 -6.679688 4.71875 -6.609375 C 5.039062 -6.546875 5.289062 -6.472656 5.46875 -6.390625 L 5.15625 -5.53125 C 4.9375 -5.625 4.695312 -5.695312 4.4375 -5.75 C 4.175781 -5.8125 3.945312 -5.84375 3.75 -5.84375 C 2.40625 -5.84375 1.734375 -4.984375 1.734375 -3.265625 C 1.734375 -2.460938 1.894531 -1.84375 2.21875 -1.40625 C 2.550781 -0.96875 3.035156 -0.75 3.671875 -0.75 C 4.222656 -0.75 4.789062 -0.867188 5.375 -1.109375 L 5.375 -0.21875 C 4.925781 0.0078125 4.367188 0.125 3.703125 0.125 Z M 3.703125 0.125 "/></g></g></g><g fill="#ffffff" fill-opacity="1"><g transform="translate(168.27955, 270.857442)"><g><path d="M 3.1875 -0.703125 C 3.363281 -0.703125 3.535156 -0.710938 3.703125 -0.734375 C 3.867188 -0.765625 4 -0.796875 4.09375 -0.828125 L 4.09375 -0.0625 C 3.988281 -0.0078125 3.828125 0.03125 3.609375 0.0625 C 3.398438 0.101562 3.210938 0.125 3.046875 0.125 C 1.773438 0.125 1.140625 -0.550781 1.140625 -1.90625 L 1.140625 -5.828125 L 0.1875 -5.828125 L 0.1875 -6.3125 L 1.140625 -6.71875 L 1.5625 -8.140625 L 2.140625 -8.140625 L 2.140625 -6.609375 L 4.046875 -6.609375 L 4.046875 -5.828125 L 2.140625 -5.828125 L 2.140625 -1.9375 C 2.140625 -1.539062 2.234375 -1.234375 2.421875 -1.015625 C 2.609375 -0.804688 2.863281 -0.703125 3.1875 -0.703125 Z M 3.1875 -0.703125 "/></g></g></g><g fill="#ffffff" fill-opacity="1"><g transform="translate(176.648591, 270.857442)"><g><path d="M 2.0625 0 L 1.0625 0 L 1.0625 -6.609375 L 2.0625 -6.609375 Z M 0.96875 -8.390625 C 0.96875 -8.617188 1.023438 -8.785156 1.140625 -8.890625 C 1.253906 -9.003906 1.394531 -9.0625 1.5625 -9.0625 C 1.726562 -9.0625 1.867188 -9.003906 1.984375 -8.890625 C 2.097656 -8.785156 2.15625 -8.617188 2.15625 -8.390625 C 2.15625 -8.171875 2.097656 -8.003906 1.984375 -7.890625 C 1.867188 -7.785156 1.726562 -7.734375 1.5625 -7.734375 C 1.394531 -7.734375 1.253906 -7.785156 1.140625 -7.890625 C 1.023438 -8.003906 0.96875 -8.171875 0.96875 -8.390625 Z M 0.96875 -8.390625 "/></g></g></g><g fill="#ffffff" fill-opacity="1"><g transform="translate(183.782436, 270.857442)"><g><path d="M 2.5 0 L 0 -6.609375 L 1.078125 -6.609375 L 2.5 -2.6875 C 2.820312 -1.769531 3.007812 -1.175781 3.0625 -0.90625 L 3.109375 -0.90625 C 3.148438 -1.113281 3.285156 -1.550781 3.515625 -2.21875 C 3.753906 -2.894531 4.285156 -4.359375 5.109375 -6.609375 L 6.1875 -6.609375 L 3.671875 0 Z M 2.5 0 "/></g></g></g><g fill="#ffffff" fill-opacity="1"><g transform="translate(193.977142, 270.857442)"><g><path d="M 2.0625 0 L 1.0625 0 L 1.0625 -6.609375 L 2.0625 -6.609375 Z M 0.96875 -8.390625 C 0.96875 -8.617188 1.023438 -8.785156 1.140625 -8.890625 C 1.253906 -9.003906 1.394531 -9.0625 1.5625 -9.0625 C 1.726562 -9.0625 1.867188 -9.003906 1.984375 -8.890625 C 2.097656 -8.785156 2.15625 -8.617188 2.15625 -8.390625 C 2.15625 -8.171875 2.097656 -8.003906 1.984375 -7.890625 C 1.867188 -7.785156 1.726562 -7.734375 1.5625 -7.734375 C 1.394531 -7.734375 1.253906 -7.785156 1.140625 -7.890625 C 1.023438 -8.003906 0.96875 -8.171875 0.96875 -8.390625 Z M 0.96875 -8.390625 "/></g></g></g><g fill="#ffffff" fill-opacity="1"><g transform="translate(201.110993, 270.857442)"><g><path d="M 3.1875 -0.703125 C 3.363281 -0.703125 3.535156 -0.710938 3.703125 -0.734375 C 3.867188 -0.765625 4 -0.796875 4.09375 -0.828125 L 4.09375 -0.0625 C 3.988281 -0.0078125 3.828125 0.03125 3.609375 0.0625 C 3.398438 0.101562 3.210938 0.125 3.046875 0.125 C 1.773438 0.125 1.140625 -0.550781 1.140625 -1.90625 L 1.140625 -5.828125 L 0.1875 -5.828125 L 0.1875 -6.3125 L 1.140625 -6.71875 L 1.5625 -8.140625 L 2.140625 -8.140625 L 2.140625 -6.609375 L 4.046875 -6.609375 L 4.046875 -5.828125 L 2.140625 -5.828125 L 2.140625 -1.9375 C 2.140625 -1.539062 2.234375 -1.234375 2.421875 -1.015625 C 2.609375 -0.804688 2.863281 -0.703125 3.1875 -0.703125 Z M 3.1875 -0.703125 "/></g></g></g><g fill="#ffffff" fill-opacity="1"><g transform="translate(209.480034, 270.857442)"><g><path d="M 0.015625 -6.609375 L 1.078125 -6.609375 L 2.53125 -2.84375 C 2.84375 -1.976562 3.039062 -1.351562 3.125 -0.96875 L 3.171875 -0.96875 C 3.222656 -1.175781 3.332031 -1.523438 3.5 -2.015625 C 3.664062 -2.515625 4.210938 -4.046875 5.140625 -6.609375 L 6.203125 -6.609375 L 3.375 0.921875 C 3.09375 1.660156 2.757812 2.1875 2.375 2.5 C 2 2.8125 1.539062 2.96875 1 2.96875 C 0.695312 2.96875 0.394531 2.929688 0.09375 2.859375 L 0.09375 2.0625 C 0.3125 2.113281 0.5625 2.140625 0.84375 2.140625 C 1.53125 2.140625 2.019531 1.75 2.3125 0.96875 L 2.671875 0.03125 Z M 0.015625 -6.609375 "/></g></g></g><g fill="#ffffff" fill-opacity="1"><g transform="translate(219.710891, 270.857442)"><g/></g></g><g fill="#ffffff" fill-opacity="1"><g transform="translate(226.929092, 270.857442)"><g><path d="M 6.1875 -2.34375 C 6.1875 -1.570312 5.90625 -0.96875 5.34375 -0.53125 C 4.78125 -0.09375 4.015625 0.125 3.046875 0.125 C 2.003906 0.125 1.203125 -0.0078125 0.640625 -0.28125 L 0.640625 -1.265625 C 1.003906 -1.117188 1.394531 -1 1.8125 -0.90625 C 2.238281 -0.820312 2.664062 -0.78125 3.09375 -0.78125 C 3.769531 -0.78125 4.28125 -0.910156 4.625 -1.171875 C 4.96875 -1.429688 5.140625 -1.789062 5.140625 -2.25 C 5.140625 -2.550781 5.078125 -2.800781 4.953125 -3 C 4.835938 -3.195312 4.632812 -3.375 4.34375 -3.53125 C 4.0625 -3.695312 3.625 -3.882812 3.03125 -4.09375 C 2.21875 -4.382812 1.632812 -4.734375 1.28125 -5.140625 C 0.925781 -5.546875 0.75 -6.070312 0.75 -6.71875 C 0.75 -7.394531 1.003906 -7.929688 1.515625 -8.328125 C 2.023438 -8.734375 2.703125 -8.9375 3.546875 -8.9375 C 4.421875 -8.9375 5.222656 -8.773438 5.953125 -8.453125 L 5.640625 -7.5625 C 4.910156 -7.863281 4.203125 -8.015625 3.515625 -8.015625 C 2.972656 -8.015625 2.550781 -7.898438 2.25 -7.671875 C 1.945312 -7.441406 1.796875 -7.117188 1.796875 -6.703125 C 1.796875 -6.398438 1.847656 -6.148438 1.953125 -5.953125 C 2.066406 -5.753906 2.253906 -5.570312 2.515625 -5.40625 C 2.785156 -5.25 3.195312 -5.070312 3.75 -4.875 C 4.675781 -4.539062 5.3125 -4.1875 5.65625 -3.8125 C 6.007812 -3.4375 6.1875 -2.945312 6.1875 -2.34375 Z M 6.1875 -2.34375 "/></g></g></g><g fill="#ffffff" fill-opacity="1"><g transform="translate(237.714278, 270.857442)"><g><path d="M 2 -6.609375 L 2 -2.328125 C 2 -1.785156 2.117188 -1.378906 2.359375 -1.109375 C 2.609375 -0.847656 2.992188 -0.71875 3.515625 -0.71875 C 4.210938 -0.71875 4.71875 -0.90625 5.03125 -1.28125 C 5.351562 -1.65625 5.515625 -2.273438 5.515625 -3.140625 L 5.515625 -6.609375 L 6.515625 -6.609375 L 6.515625 0 L 5.6875 0 L 5.546875 -0.890625 L 5.484375 -0.890625 C 5.285156 -0.554688 5.003906 -0.300781 4.640625 -0.125 C 4.273438 0.0390625 3.859375 0.125 3.390625 0.125 C 2.585938 0.125 1.984375 -0.0664062 1.578125 -0.453125 C 1.179688 -0.835938 0.984375 -1.445312 0.984375 -2.28125 L 0.984375 -6.609375 Z M 2 -6.609375 "/></g></g></g><g fill="#ffffff" fill-opacity="1"><g transform="translate(249.300836, 270.857442)"><g><path d="M 2.0625 0 L 1.0625 0 L 1.0625 -6.609375 L 2.0625 -6.609375 Z M 0.96875 -8.390625 C 0.96875 -8.617188 1.023438 -8.785156 1.140625 -8.890625 C 1.253906 -9.003906 1.394531 -9.0625 1.5625 -9.0625 C 1.726562 -9.0625 1.867188 -9.003906 1.984375 -8.890625 C 2.097656 -8.785156 2.15625 -8.617188 2.15625 -8.390625 C 2.15625 -8.171875 2.097656 -8.003906 1.984375 -7.890625 C 1.867188 -7.785156 1.726562 -7.734375 1.5625 -7.734375 C 1.394531 -7.734375 1.253906 -7.785156 1.140625 -7.890625 C 1.023438 -8.003906 0.96875 -8.171875 0.96875 -8.390625 Z M 0.96875 -8.390625 "/></g></g></g><g fill="#ffffff" fill-opacity="1"><g transform="translate(256.434682, 270.857442)"><g><path d="M 3.1875 -0.703125 C 3.363281 -0.703125 3.535156 -0.710938 3.703125 -0.734375 C 3.867188 -0.765625 4 -0.796875 4.09375 -0.828125 L 4.09375 -0.0625 C 3.988281 -0.0078125 3.828125 0.03125 3.609375 0.0625 C 3.398438 0.101562 3.210938 0.125 3.046875 0.125 C 1.773438 0.125 1.140625 -0.550781 1.140625 -1.90625 L 1.140625 -5.828125 L 0.1875 -5.828125 L 0.1875 -6.3125 L 1.140625 -6.71875 L 1.5625 -8.140625 L 2.140625 -8.140625 L 2.140625 -6.609375 L 4.046875 -6.609375 L 4.046875 -5.828125 L 2.140625 -5.828125 L 2.140625 -1.9375 C 2.140625 -1.539062 2.234375 -1.234375 2.421875 -1.015625 C 2.609375 -0.804688 2.863281 -0.703125 3.1875 -0.703125 Z M 3.1875 -0.703125 "/></g></g></g><g fill="#ffffff" fill-opacity="1"><g transform="translate(264.803723, 270.857442)"><g><path d="M 3.84375 0.125 C 2.875 0.125 2.101562 -0.171875 1.53125 -0.765625 C 0.96875 -1.359375 0.6875 -2.1875 0.6875 -3.25 C 0.6875 -4.3125 0.945312 -5.15625 1.46875 -5.78125 C 2 -6.40625 2.707031 -6.71875 3.59375 -6.71875 C 4.414062 -6.71875 5.066406 -6.445312 5.546875 -5.90625 C 6.035156 -5.363281 6.28125 -4.644531 6.28125 -3.75 L 6.28125 -3.125 L 1.734375 -3.125 C 1.753906 -2.34375 1.945312 -1.75 2.3125 -1.34375 C 2.6875 -0.945312 3.210938 -0.75 3.890625 -0.75 C 4.597656 -0.75 5.300781 -0.898438 6 -1.203125 L 6 -0.3125 C 5.644531 -0.15625 5.304688 -0.046875 4.984375 0.015625 C 4.671875 0.0859375 4.289062 0.125 3.84375 0.125 Z M 3.578125 -5.890625 C 3.046875 -5.890625 2.625 -5.71875 2.3125 -5.375 C 2 -5.03125 1.8125 -4.550781 1.75 -3.9375 L 5.203125 -3.9375 C 5.203125 -4.5625 5.0625 -5.039062 4.78125 -5.375 C 4.5 -5.71875 4.097656 -5.890625 3.578125 -5.890625 Z M 3.578125 -5.890625 "/></g></g></g></svg>