<svg xmlns="http://www.w3.org/2000/svg" xmlns:xlink="http://www.w3.org/1999/xlink" width="500" zoomAndPan="magnify" viewBox="0 0 375 374.999991" height="500" preserveAspectRatio="xMidYMid meet" version="1.0"><defs><g/><clipPath id="be8bc61dde"><path d="M 124 101.933594 L 251 101.933594 L 251 199 L 124 199 Z M 124 101.933594 " clip-rule="nonzero"/></clipPath><clipPath id="8edc1faf23"><path d="M 119.242188 104 L 255.742188 104 L 255.742188 215.933594 L 119.242188 215.933594 Z M 119.242188 104 " clip-rule="nonzero"/></clipPath></defs><g clip-path="url(#be8bc61dde)"><path fill="#00a3d8" d="M 193.804688 198.820312 C 214.164062 190.246094 233.070312 178.828125 246.15625 156.007812 C 251.375 146.914062 253.757812 136.480469 245.867188 127.824219 C 241.589844 123.140625 235.84375 120.050781 229.617188 118.171875 L 226.761719 126.015625 C 232.175781 128.269531 236.859375 131.796875 239.679688 137.378906 C 251.621094 161.023438 210.023438 189.863281 193.804688 198.820312 Z M 180.949219 196.988281 C 174.875 171.863281 161.410156 150.425781 137.140625 134.382812 C 132.769531 138.488281 128.398438 142.589844 124.027344 146.695312 C 152.292969 152.695312 170.175781 170.726562 180.949219 196.988281 Z M 179.605469 150.382812 L 201.464844 156.054688 L 230.675781 101.933594 L 206.542969 168.1875 Z M 179.605469 150.382812 " fill-opacity="1" fill-rule="evenodd"/></g><g clip-path="url(#8edc1faf23)"><path fill="#002e44" d="M 135.742188 171.175781 C 131.871094 178.941406 130.917969 188.929688 136.820312 195.921875 C 142.015625 202.074219 151.382812 204.785156 160.441406 205.523438 C 167.542969 206.105469 174.714844 205.707031 181.789062 204.457031 C 177.265625 171.0625 163.335938 143.066406 130.828125 125.738281 C 150.941406 118.578125 171.054688 111.417969 191.164062 104.257812 C 199.84375 111.261719 205.609375 119.296875 209.3125 127.984375 L 205.898438 134.308594 C 202.617188 127.085938 198.109375 120.242188 191.949219 114.214844 C 180.058594 118.839844 168.167969 123.46875 156.273438 128.097656 C 176.84375 149.910156 183.945312 175.894531 184.222656 203.996094 C 215.707031 197.542969 244.753906 174.257812 255.433594 144.335938 C 248.632812 189.082031 193.425781 219.757812 150.660156 215.546875 C 139.847656 214.484375 129.628906 210.460938 124.292969 201.535156 C 118.246094 191.417969 122.761719 178.464844 128.667969 168.980469 C 131.109375 169.585938 133.46875 170.320312 135.742188 171.175781 Z M 175.949219 200.917969 C 168.695312 177.808594 153.667969 161.207031 129.253906 152.457031 C 126.019531 155.777344 122.78125 159.09375 119.546875 162.410156 C 141.578125 164.75 160.921875 175.808594 175.949219 200.917969 Z M 214.902344 152.765625 C 215.472656 160.972656 215.078125 169.417969 214.25 177.863281 C 214.160156 171.703125 213.769531 165.175781 212.785156 158.574219 Z M 214.902344 152.765625 " fill-opacity="1" fill-rule="evenodd"/></g><g fill="#002e44" fill-opacity="1"><g transform="translate(74.600997, 252.720177)"><g><path d="M 11.703125 0 L 6.859375 0 L 6.859375 -18.84375 L 0.640625 -18.84375 L 0.640625 -22.890625 L 17.921875 -22.890625 L 17.921875 -18.84375 L 11.703125 -18.84375 Z M 11.703125 0 "/></g></g></g><g fill="#002e44" fill-opacity="1"><g transform="translate(94.00092, 252.720177)"><g><path d="M 23.65625 -11.46875 C 23.65625 -7.6875 22.710938 -4.773438 20.828125 -2.734375 C 18.953125 -0.703125 16.265625 0.3125 12.765625 0.3125 C 9.253906 0.3125 6.554688 -0.703125 4.671875 -2.734375 C 2.796875 -4.773438 1.859375 -7.695312 1.859375 -11.5 C 1.859375 -15.3125 2.800781 -18.222656 4.6875 -20.234375 C 6.570312 -22.242188 9.273438 -23.25 12.796875 -23.25 C 16.304688 -23.25 18.992188 -22.234375 20.859375 -20.203125 C 22.722656 -18.179688 23.65625 -15.269531 23.65625 -11.46875 Z M 6.953125 -11.46875 C 6.953125 -8.914062 7.4375 -6.988281 8.40625 -5.6875 C 9.375 -4.394531 10.828125 -3.75 12.765625 -3.75 C 16.628906 -3.75 18.5625 -6.320312 18.5625 -11.46875 C 18.5625 -16.625 16.640625 -19.203125 12.796875 -19.203125 C 10.859375 -19.203125 9.398438 -18.550781 8.421875 -17.25 C 7.441406 -15.957031 6.953125 -14.03125 6.953125 -11.46875 Z M 6.953125 -11.46875 "/></g></g></g><g fill="#002e44" fill-opacity="1"><g transform="translate(120.35143, 252.720177)"><g><path d="M 21.875 -11.65625 C 21.875 -7.894531 20.800781 -5.007812 18.65625 -3 C 16.507812 -1 13.410156 0 9.359375 0 L 2.875 0 L 2.875 -22.890625 L 10.0625 -22.890625 C 13.800781 -22.890625 16.703125 -21.898438 18.765625 -19.921875 C 20.835938 -17.953125 21.875 -15.195312 21.875 -11.65625 Z M 16.828125 -11.53125 C 16.828125 -16.445312 14.65625 -18.90625 10.3125 -18.90625 L 7.734375 -18.90625 L 7.734375 -4.015625 L 9.8125 -4.015625 C 14.488281 -4.015625 16.828125 -6.519531 16.828125 -11.53125 Z M 16.828125 -11.53125 "/></g></g></g><g fill="#002e44" fill-opacity="1"><g transform="translate(144.917331, 252.720177)"><g><path d="M 23.65625 -11.46875 C 23.65625 -7.6875 22.710938 -4.773438 20.828125 -2.734375 C 18.953125 -0.703125 16.265625 0.3125 12.765625 0.3125 C 9.253906 0.3125 6.554688 -0.703125 4.671875 -2.734375 C 2.796875 -4.773438 1.859375 -7.695312 1.859375 -11.5 C 1.859375 -15.3125 2.800781 -18.222656 4.6875 -20.234375 C 6.570312 -22.242188 9.273438 -23.25 12.796875 -23.25 C 16.304688 -23.25 18.992188 -22.234375 20.859375 -20.203125 C 22.722656 -18.179688 23.65625 -15.269531 23.65625 -11.46875 Z M 6.953125 -11.46875 C 6.953125 -8.914062 7.4375 -6.988281 8.40625 -5.6875 C 9.375 -4.394531 10.828125 -3.75 12.765625 -3.75 C 16.628906 -3.75 18.5625 -6.320312 18.5625 -11.46875 C 18.5625 -16.625 16.640625 -19.203125 12.796875 -19.203125 C 10.859375 -19.203125 9.398438 -18.550781 8.421875 -17.25 C 7.441406 -15.957031 6.953125 -14.03125 6.953125 -11.46875 Z M 6.953125 -11.46875 "/></g></g></g><g fill="#002e44" fill-opacity="1"><g transform="translate(171.267839, 252.720177)"><g/></g></g><g fill="#00a3d8" fill-opacity="1"><g transform="translate(180.415563, 252.720177)"><g><path d="M 25.171875 0 L 19.640625 0 L 16.546875 -12.03125 C 16.429688 -12.457031 16.234375 -13.335938 15.953125 -14.671875 C 15.679688 -16.015625 15.523438 -16.914062 15.484375 -17.375 C 15.421875 -16.8125 15.265625 -15.90625 15.015625 -14.65625 C 14.765625 -13.414062 14.570312 -12.523438 14.4375 -11.984375 L 11.34375 0 L 5.84375 0 L 0 -22.890625 L 4.78125 -22.890625 L 7.703125 -10.390625 C 8.210938 -8.085938 8.582031 -6.09375 8.8125 -4.40625 C 8.875 -5 9.015625 -5.914062 9.234375 -7.15625 C 9.460938 -8.40625 9.675781 -9.375 9.875 -10.0625 L 13.21875 -22.890625 L 17.796875 -22.890625 L 21.140625 -10.0625 C 21.285156 -9.488281 21.46875 -8.613281 21.6875 -7.4375 C 21.90625 -6.257812 22.070312 -5.25 22.1875 -4.40625 C 22.289062 -5.21875 22.457031 -6.226562 22.6875 -7.4375 C 22.914062 -8.65625 23.125 -9.640625 23.3125 -10.390625 L 26.21875 -22.890625 L 31 -22.890625 Z M 25.171875 0 "/></g></g></g><g fill="#00a3d8" fill-opacity="1"><g transform="translate(212.245138, 252.720177)"><g><path d="M 23.65625 -11.46875 C 23.65625 -7.6875 22.710938 -4.773438 20.828125 -2.734375 C 18.953125 -0.703125 16.265625 0.3125 12.765625 0.3125 C 9.253906 0.3125 6.554688 -0.703125 4.671875 -2.734375 C 2.796875 -4.773438 1.859375 -7.695312 1.859375 -11.5 C 1.859375 -15.3125 2.800781 -18.222656 4.6875 -20.234375 C 6.570312 -22.242188 9.273438 -23.25 12.796875 -23.25 C 16.304688 -23.25 18.992188 -22.234375 20.859375 -20.203125 C 22.722656 -18.179688 23.65625 -15.269531 23.65625 -11.46875 Z M 6.953125 -11.46875 C 6.953125 -8.914062 7.4375 -6.988281 8.40625 -5.6875 C 9.375 -4.394531 10.828125 -3.75 12.765625 -3.75 C 16.628906 -3.75 18.5625 -6.320312 18.5625 -11.46875 C 18.5625 -16.625 16.640625 -19.203125 12.796875 -19.203125 C 10.859375 -19.203125 9.398438 -18.550781 8.421875 -17.25 C 7.441406 -15.957031 6.953125 -14.03125 6.953125 -11.46875 Z M 6.953125 -11.46875 "/></g></g></g><g fill="#00a3d8" fill-opacity="1"><g transform="translate(238.595648, 252.720177)"><g><path d="M 7.734375 -12.734375 L 9.296875 -12.734375 C 10.828125 -12.734375 11.957031 -12.988281 12.6875 -13.5 C 13.425781 -14.007812 13.796875 -14.8125 13.796875 -15.90625 C 13.796875 -16.988281 13.421875 -17.757812 12.671875 -18.21875 C 11.921875 -18.675781 10.765625 -18.90625 9.203125 -18.90625 L 7.734375 -18.90625 Z M 7.734375 -8.78125 L 7.734375 0 L 2.875 0 L 2.875 -22.890625 L 9.546875 -22.890625 C 12.660156 -22.890625 14.960938 -22.320312 16.453125 -21.1875 C 17.941406 -20.050781 18.6875 -18.332031 18.6875 -16.03125 C 18.6875 -14.6875 18.316406 -13.488281 17.578125 -12.4375 C 16.835938 -11.382812 15.789062 -10.5625 14.4375 -9.96875 C 17.875 -4.820312 20.117188 -1.5 21.171875 0 L 15.78125 0 L 10.3125 -8.78125 Z M 7.734375 -8.78125 "/></g></g></g><g fill="#00a3d8" fill-opacity="1"><g transform="translate(260.594216, 252.720177)"><g><path d="M 21.296875 0 L 15.78125 0 L 9.78125 -9.640625 L 7.734375 -8.171875 L 7.734375 0 L 2.875 0 L 2.875 -22.890625 L 7.734375 -22.890625 L 7.734375 -12.421875 L 9.640625 -15.109375 L 15.84375 -22.890625 L 21.234375 -22.890625 L 13.25 -12.765625 Z M 21.296875 0 "/></g></g></g><g fill="#00a3d8" fill-opacity="1"><g transform="translate(282.718015, 252.720177)"><g><path d="M 16.390625 -6.359375 C 16.390625 -4.285156 15.644531 -2.65625 14.15625 -1.46875 C 12.664062 -0.28125 10.597656 0.3125 7.953125 0.3125 C 5.515625 0.3125 3.351562 -0.144531 1.46875 -1.0625 L 1.46875 -5.578125 C 3.007812 -4.890625 4.316406 -4.398438 5.390625 -4.109375 C 6.460938 -3.828125 7.441406 -3.6875 8.328125 -3.6875 C 9.390625 -3.6875 10.203125 -3.890625 10.765625 -4.296875 C 11.335938 -4.710938 11.625 -5.320312 11.625 -6.125 C 11.625 -6.570312 11.5 -6.96875 11.25 -7.3125 C 11 -7.664062 10.628906 -8.003906 10.140625 -8.328125 C 9.660156 -8.648438 8.675781 -9.164062 7.1875 -9.875 C 5.789062 -10.53125 4.738281 -11.160156 4.03125 -11.765625 C 3.332031 -12.378906 2.773438 -13.085938 2.359375 -13.890625 C 1.941406 -14.691406 1.734375 -15.628906 1.734375 -16.703125 C 1.734375 -18.722656 2.421875 -20.3125 3.796875 -21.46875 C 5.171875 -22.632812 7.066406 -23.21875 9.484375 -23.21875 C 10.671875 -23.21875 11.804688 -23.078125 12.890625 -22.796875 C 13.972656 -22.515625 15.101562 -22.117188 16.28125 -21.609375 L 14.71875 -17.828125 C 13.5 -18.328125 12.488281 -18.675781 11.6875 -18.875 C 10.882812 -19.070312 10.097656 -19.171875 9.328125 -19.171875 C 8.410156 -19.171875 7.707031 -18.957031 7.21875 -18.53125 C 6.726562 -18.101562 6.484375 -17.546875 6.484375 -16.859375 C 6.484375 -16.429688 6.582031 -16.054688 6.78125 -15.734375 C 6.976562 -15.421875 7.289062 -15.113281 7.71875 -14.8125 C 8.15625 -14.519531 9.179688 -13.988281 10.796875 -13.21875 C 12.941406 -12.1875 14.410156 -11.15625 15.203125 -10.125 C 15.992188 -9.101562 16.390625 -7.847656 16.390625 -6.359375 Z M 16.390625 -6.359375 "/></g></g></g><g fill="#002e44" fill-opacity="1"><g transform="translate(98.390249, 270.735237)"><g><path d="M 2.984375 -4.671875 L 3.59375 -4.671875 C 4.164062 -4.671875 4.59375 -4.78125 4.875 -5 C 5.164062 -5.226562 5.3125 -5.5625 5.3125 -6 C 5.3125 -6.4375 5.191406 -6.757812 4.953125 -6.96875 C 4.710938 -7.175781 4.335938 -7.28125 3.828125 -7.28125 L 2.984375 -7.28125 Z M 7.203125 -6.0625 C 7.203125 -5.113281 6.90625 -4.390625 6.3125 -3.890625 C 5.71875 -3.390625 4.875 -3.140625 3.78125 -3.140625 L 2.984375 -3.140625 L 2.984375 0 L 1.109375 0 L 1.109375 -8.8125 L 3.921875 -8.8125 C 4.992188 -8.8125 5.804688 -8.582031 6.359375 -8.125 C 6.921875 -7.664062 7.203125 -6.976562 7.203125 -6.0625 Z M 7.203125 -6.0625 "/></g></g></g><g fill="#002e44" fill-opacity="1"><g transform="translate(110.147027, 270.735237)"><g><path d="M 4.71875 -6.859375 C 4.96875 -6.859375 5.175781 -6.84375 5.34375 -6.8125 L 5.203125 -5.09375 C 5.054688 -5.125 4.878906 -5.140625 4.671875 -5.140625 C 4.078125 -5.140625 3.613281 -4.988281 3.28125 -4.6875 C 2.957031 -4.394531 2.796875 -3.972656 2.796875 -3.421875 L 2.796875 0 L 0.96875 0 L 0.96875 -6.734375 L 2.359375 -6.734375 L 2.625 -5.609375 L 2.71875 -5.609375 C 2.925781 -5.984375 3.207031 -6.285156 3.5625 -6.515625 C 3.914062 -6.742188 4.300781 -6.859375 4.71875 -6.859375 Z M 4.71875 -6.859375 "/></g></g></g><g fill="#002e44" fill-opacity="1"><g transform="translate(119.760039, 270.735237)"><g><path d="M 2.421875 -3.375 C 2.421875 -2.707031 2.53125 -2.203125 2.75 -1.859375 C 2.976562 -1.523438 3.335938 -1.359375 3.828125 -1.359375 C 4.316406 -1.359375 4.664062 -1.523438 4.875 -1.859375 C 5.09375 -2.203125 5.203125 -2.707031 5.203125 -3.375 C 5.203125 -4.039062 5.09375 -4.539062 4.875 -4.875 C 4.664062 -5.207031 4.3125 -5.375 3.8125 -5.375 C 3.320312 -5.375 2.96875 -5.207031 2.75 -4.875 C 2.53125 -4.550781 2.421875 -4.050781 2.421875 -3.375 Z M 7.09375 -3.375 C 7.09375 -2.28125 6.800781 -1.421875 6.21875 -0.796875 C 5.644531 -0.179688 4.835938 0.125 3.796875 0.125 C 3.148438 0.125 2.578125 -0.015625 2.078125 -0.296875 C 1.585938 -0.585938 1.207031 -1 0.9375 -1.53125 C 0.675781 -2.0625 0.546875 -2.675781 0.546875 -3.375 C 0.546875 -4.476562 0.832031 -5.332031 1.40625 -5.9375 C 1.988281 -6.550781 2.800781 -6.859375 3.84375 -6.859375 C 4.488281 -6.859375 5.054688 -6.71875 5.546875 -6.4375 C 6.046875 -6.15625 6.425781 -5.75 6.6875 -5.21875 C 6.957031 -4.695312 7.09375 -4.082031 7.09375 -3.375 Z M 7.09375 -3.375 "/></g></g></g><g fill="#002e44" fill-opacity="1"><g transform="translate(131.408427, 270.735237)"><g><path d="M 3.09375 0.125 C 2.300781 0.125 1.675781 -0.179688 1.21875 -0.796875 C 0.769531 -1.410156 0.546875 -2.265625 0.546875 -3.359375 C 0.546875 -4.460938 0.773438 -5.320312 1.234375 -5.9375 C 1.703125 -6.550781 2.335938 -6.859375 3.140625 -6.859375 C 3.992188 -6.859375 4.644531 -6.53125 5.09375 -5.875 L 5.140625 -5.875 C 5.054688 -6.375 5.015625 -6.820312 5.015625 -7.21875 L 5.015625 -9.375 L 6.859375 -9.375 L 6.859375 0 L 5.4375 0 L 5.09375 -0.875 L 5.015625 -0.875 C 4.585938 -0.207031 3.945312 0.125 3.09375 0.125 Z M 3.75 -1.34375 C 4.21875 -1.34375 4.5625 -1.476562 4.78125 -1.75 C 5 -2.019531 5.117188 -2.484375 5.140625 -3.140625 L 5.140625 -3.34375 C 5.140625 -4.070312 5.023438 -4.59375 4.796875 -4.90625 C 4.578125 -5.21875 4.21875 -5.375 3.71875 -5.375 C 3.300781 -5.375 2.976562 -5.195312 2.75 -4.84375 C 2.53125 -4.5 2.421875 -3.992188 2.421875 -3.328125 C 2.421875 -2.671875 2.535156 -2.175781 2.765625 -1.84375 C 2.992188 -1.507812 3.320312 -1.34375 3.75 -1.34375 Z M 3.75 -1.34375 "/></g></g></g><g fill="#002e44" fill-opacity="1"><g transform="translate(143.225422, 270.735237)"><g><path d="M 5.734375 0 L 5.484375 -0.859375 L 5.390625 -0.859375 C 5.191406 -0.546875 4.910156 -0.300781 4.546875 -0.125 C 4.191406 0.0390625 3.785156 0.125 3.328125 0.125 C 2.535156 0.125 1.9375 -0.0859375 1.53125 -0.515625 C 1.125 -0.941406 0.921875 -1.550781 0.921875 -2.34375 L 0.921875 -6.734375 L 2.765625 -6.734375 L 2.765625 -2.796875 C 2.765625 -2.316406 2.847656 -1.953125 3.015625 -1.703125 C 3.191406 -1.460938 3.46875 -1.34375 3.84375 -1.34375 C 4.363281 -1.34375 4.738281 -1.515625 4.96875 -1.859375 C 5.195312 -2.203125 5.3125 -2.769531 5.3125 -3.5625 L 5.3125 -6.734375 L 7.140625 -6.734375 L 7.140625 0 Z M 5.734375 0 "/></g></g></g><g fill="#002e44" fill-opacity="1"><g transform="translate(155.343508, 270.735237)"><g><path d="M 3.703125 0.125 C 1.597656 0.125 0.546875 -1.023438 0.546875 -3.328125 C 0.546875 -4.472656 0.832031 -5.347656 1.40625 -5.953125 C 1.976562 -6.554688 2.796875 -6.859375 3.859375 -6.859375 C 4.640625 -6.859375 5.335938 -6.707031 5.953125 -6.40625 L 5.421875 -4.984375 C 5.128906 -5.097656 4.859375 -5.191406 4.609375 -5.265625 C 4.359375 -5.335938 4.109375 -5.375 3.859375 -5.375 C 2.898438 -5.375 2.421875 -4.695312 2.421875 -3.34375 C 2.421875 -2.03125 2.898438 -1.375 3.859375 -1.375 C 4.210938 -1.375 4.539062 -1.421875 4.84375 -1.515625 C 5.144531 -1.609375 5.445312 -1.753906 5.75 -1.953125 L 5.75 -0.375 C 5.445312 -0.1875 5.144531 -0.0546875 4.84375 0.015625 C 4.539062 0.0859375 4.160156 0.125 3.703125 0.125 Z M 3.703125 0.125 "/></g></g></g><g fill="#002e44" fill-opacity="1"><g transform="translate(165.697208, 270.735237)"><g><path d="M 3.796875 -1.34375 C 4.117188 -1.34375 4.503906 -1.414062 4.953125 -1.5625 L 4.953125 -0.1875 C 4.492188 0.0195312 3.929688 0.125 3.265625 0.125 C 2.535156 0.125 2 -0.0625 1.65625 -0.4375 C 1.320312 -0.8125 1.15625 -1.367188 1.15625 -2.109375 L 1.15625 -5.359375 L 0.28125 -5.359375 L 0.28125 -6.140625 L 1.296875 -6.75 L 1.828125 -8.171875 L 3 -8.171875 L 3 -6.734375 L 4.890625 -6.734375 L 4.890625 -5.359375 L 3 -5.359375 L 3 -2.109375 C 3 -1.847656 3.070312 -1.65625 3.21875 -1.53125 C 3.363281 -1.40625 3.554688 -1.34375 3.796875 -1.34375 Z M 3.796875 -1.34375 "/></g></g></g><g fill="#002e44" fill-opacity="1"><g transform="translate(175.063331, 270.735237)"><g><path d="M 0.890625 -8.484375 C 0.890625 -9.078125 1.222656 -9.375 1.890625 -9.375 C 2.554688 -9.375 2.890625 -9.078125 2.890625 -8.484375 C 2.890625 -8.191406 2.804688 -7.96875 2.640625 -7.8125 C 2.472656 -7.65625 2.222656 -7.578125 1.890625 -7.578125 C 1.222656 -7.578125 0.890625 -7.878906 0.890625 -8.484375 Z M 2.796875 0 L 0.96875 0 L 0.96875 -6.734375 L 2.796875 -6.734375 Z M 2.796875 0 "/></g></g></g><g fill="#002e44" fill-opacity="1"><g transform="translate(182.839694, 270.735237)"><g><path d="M 2.5625 0 L 0 -6.734375 L 1.921875 -6.734375 L 3.21875 -2.90625 C 3.363281 -2.414062 3.457031 -1.953125 3.5 -1.515625 L 3.53125 -1.515625 C 3.550781 -1.898438 3.640625 -2.363281 3.796875 -2.90625 L 5.09375 -6.734375 L 7.015625 -6.734375 L 4.453125 0 Z M 2.5625 0 "/></g></g></g><g fill="#002e44" fill-opacity="1"><g transform="translate(193.867838, 270.735237)"><g><path d="M 0.890625 -8.484375 C 0.890625 -9.078125 1.222656 -9.375 1.890625 -9.375 C 2.554688 -9.375 2.890625 -9.078125 2.890625 -8.484375 C 2.890625 -8.191406 2.804688 -7.96875 2.640625 -7.8125 C 2.472656 -7.65625 2.222656 -7.578125 1.890625 -7.578125 C 1.222656 -7.578125 0.890625 -7.878906 0.890625 -8.484375 Z M 2.796875 0 L 0.96875 0 L 0.96875 -6.734375 L 2.796875 -6.734375 Z M 2.796875 0 "/></g></g></g><g fill="#002e44" fill-opacity="1"><g transform="translate(201.644201, 270.735237)"><g><path d="M 3.796875 -1.34375 C 4.117188 -1.34375 4.503906 -1.414062 4.953125 -1.5625 L 4.953125 -0.1875 C 4.492188 0.0195312 3.929688 0.125 3.265625 0.125 C 2.535156 0.125 2 -0.0625 1.65625 -0.4375 C 1.320312 -0.8125 1.15625 -1.367188 1.15625 -2.109375 L 1.15625 -5.359375 L 0.28125 -5.359375 L 0.28125 -6.140625 L 1.296875 -6.75 L 1.828125 -8.171875 L 3 -8.171875 L 3 -6.734375 L 4.890625 -6.734375 L 4.890625 -5.359375 L 3 -5.359375 L 3 -2.109375 C 3 -1.847656 3.070312 -1.65625 3.21875 -1.53125 C 3.363281 -1.40625 3.554688 -1.34375 3.796875 -1.34375 Z M 3.796875 -1.34375 "/></g></g></g><g fill="#002e44" fill-opacity="1"><g transform="translate(211.010323, 270.735237)"><g><path d="M 0 -6.734375 L 2.015625 -6.734375 L 3.28125 -2.953125 C 3.394531 -2.617188 3.472656 -2.226562 3.515625 -1.78125 L 3.546875 -1.78125 C 3.585938 -2.195312 3.671875 -2.585938 3.796875 -2.953125 L 5.046875 -6.734375 L 7.015625 -6.734375 L 4.171875 0.859375 C 3.910156 1.566406 3.535156 2.09375 3.046875 2.4375 C 2.566406 2.789062 2.003906 2.96875 1.359375 2.96875 C 1.035156 2.96875 0.722656 2.929688 0.421875 2.859375 L 0.421875 1.40625 C 0.640625 1.457031 0.878906 1.484375 1.140625 1.484375 C 1.472656 1.484375 1.757812 1.382812 2 1.1875 C 2.238281 0.988281 2.425781 0.6875 2.5625 0.28125 L 2.671875 -0.046875 Z M 0 -6.734375 "/></g></g></g><g fill="#002e44" fill-opacity="1"><g transform="translate(222.038474, 270.735237)"><g/></g></g><g fill="#002e44" fill-opacity="1"><g transform="translate(229.254801, 270.735237)"><g><path d="M 6.3125 -2.453125 C 6.3125 -1.648438 6.023438 -1.019531 5.453125 -0.5625 C 4.878906 -0.101562 4.082031 0.125 3.0625 0.125 C 2.125 0.125 1.289062 -0.0507812 0.5625 -0.40625 L 0.5625 -2.140625 C 1.15625 -1.878906 1.65625 -1.691406 2.0625 -1.578125 C 2.476562 -1.472656 2.859375 -1.421875 3.203125 -1.421875 C 3.617188 -1.421875 3.9375 -1.5 4.15625 -1.65625 C 4.375 -1.8125 4.484375 -2.046875 4.484375 -2.359375 C 4.484375 -2.523438 4.429688 -2.675781 4.328125 -2.8125 C 4.234375 -2.945312 4.09375 -3.078125 3.90625 -3.203125 C 3.71875 -3.328125 3.335938 -3.523438 2.765625 -3.796875 C 2.222656 -4.054688 1.816406 -4.300781 1.546875 -4.53125 C 1.285156 -4.757812 1.070312 -5.03125 0.90625 -5.34375 C 0.75 -5.65625 0.671875 -6.019531 0.671875 -6.4375 C 0.671875 -7.207031 0.929688 -7.816406 1.453125 -8.265625 C 1.984375 -8.710938 2.71875 -8.9375 3.65625 -8.9375 C 4.113281 -8.9375 4.550781 -8.878906 4.96875 -8.765625 C 5.382812 -8.660156 5.816406 -8.507812 6.265625 -8.3125 L 5.671875 -6.859375 C 5.191406 -7.054688 4.796875 -7.191406 4.484375 -7.265625 C 4.179688 -7.347656 3.882812 -7.390625 3.59375 -7.390625 C 3.238281 -7.390625 2.96875 -7.304688 2.78125 -7.140625 C 2.59375 -6.972656 2.5 -6.753906 2.5 -6.484375 C 2.5 -6.328125 2.535156 -6.1875 2.609375 -6.0625 C 2.679688 -5.9375 2.800781 -5.816406 2.96875 -5.703125 C 3.132812 -5.585938 3.53125 -5.382812 4.15625 -5.09375 C 4.976562 -4.695312 5.539062 -4.300781 5.84375 -3.90625 C 6.15625 -3.507812 6.3125 -3.023438 6.3125 -2.453125 Z M 6.3125 -2.453125 "/></g></g></g><g fill="#002e44" fill-opacity="1"><g transform="translate(240.060131, 270.735237)"><g><path d="M 5.734375 0 L 5.484375 -0.859375 L 5.390625 -0.859375 C 5.191406 -0.546875 4.910156 -0.300781 4.546875 -0.125 C 4.191406 0.0390625 3.785156 0.125 3.328125 0.125 C 2.535156 0.125 1.9375 -0.0859375 1.53125 -0.515625 C 1.125 -0.941406 0.921875 -1.550781 0.921875 -2.34375 L 0.921875 -6.734375 L 2.765625 -6.734375 L 2.765625 -2.796875 C 2.765625 -2.316406 2.847656 -1.953125 3.015625 -1.703125 C 3.191406 -1.460938 3.46875 -1.34375 3.84375 -1.34375 C 4.363281 -1.34375 4.738281 -1.515625 4.96875 -1.859375 C 5.195312 -2.203125 5.3125 -2.769531 5.3125 -3.5625 L 5.3125 -6.734375 L 7.140625 -6.734375 L 7.140625 0 Z M 5.734375 0 "/></g></g></g><g fill="#002e44" fill-opacity="1"><g transform="translate(252.178217, 270.735237)"><g><path d="M 0.890625 -8.484375 C 0.890625 -9.078125 1.222656 -9.375 1.890625 -9.375 C 2.554688 -9.375 2.890625 -9.078125 2.890625 -8.484375 C 2.890625 -8.191406 2.804688 -7.96875 2.640625 -7.8125 C 2.472656 -7.65625 2.222656 -7.578125 1.890625 -7.578125 C 1.222656 -7.578125 0.890625 -7.878906 0.890625 -8.484375 Z M 2.796875 0 L 0.96875 0 L 0.96875 -6.734375 L 2.796875 -6.734375 Z M 2.796875 0 "/></g></g></g><g fill="#002e44" fill-opacity="1"><g transform="translate(259.95458, 270.735237)"><g><path d="M 3.796875 -1.34375 C 4.117188 -1.34375 4.503906 -1.414062 4.953125 -1.5625 L 4.953125 -0.1875 C 4.492188 0.0195312 3.929688 0.125 3.265625 0.125 C 2.535156 0.125 2 -0.0625 1.65625 -0.4375 C 1.320312 -0.8125 1.15625 -1.367188 1.15625 -2.109375 L 1.15625 -5.359375 L 0.28125 -5.359375 L 0.28125 -6.140625 L 1.296875 -6.75 L 1.828125 -8.171875 L 3 -8.171875 L 3 -6.734375 L 4.890625 -6.734375 L 4.890625 -5.359375 L 3 -5.359375 L 3 -2.109375 C 3 -1.847656 3.070312 -1.65625 3.21875 -1.53125 C 3.363281 -1.40625 3.554688 -1.34375 3.796875 -1.34375 Z M 3.796875 -1.34375 "/></g></g></g><g fill="#002e44" fill-opacity="1"><g transform="translate(269.320702, 270.735237)"><g><path d="M 3.75 -5.5625 C 3.363281 -5.5625 3.054688 -5.4375 2.828125 -5.1875 C 2.609375 -4.9375 2.484375 -4.585938 2.453125 -4.140625 L 5.03125 -4.140625 C 5.03125 -4.585938 4.914062 -4.9375 4.6875 -5.1875 C 4.457031 -5.4375 4.144531 -5.5625 3.75 -5.5625 Z M 4.015625 0.125 C 2.929688 0.125 2.082031 -0.171875 1.46875 -0.765625 C 0.851562 -1.367188 0.546875 -2.222656 0.546875 -3.328125 C 0.546875 -4.453125 0.828125 -5.320312 1.390625 -5.9375 C 1.960938 -6.550781 2.75 -6.859375 3.75 -6.859375 C 4.695312 -6.859375 5.4375 -6.585938 5.96875 -6.046875 C 6.5 -5.503906 6.765625 -4.753906 6.765625 -3.796875 L 6.765625 -2.90625 L 2.421875 -2.90625 C 2.441406 -2.382812 2.59375 -1.976562 2.875 -1.6875 C 3.164062 -1.394531 3.570312 -1.25 4.09375 -1.25 C 4.5 -1.25 4.882812 -1.289062 5.25 -1.375 C 5.613281 -1.457031 5.992188 -1.59375 6.390625 -1.78125 L 6.390625 -0.359375 C 6.066406 -0.191406 5.71875 -0.0703125 5.34375 0 C 4.976562 0.0820312 4.535156 0.125 4.015625 0.125 Z M 4.015625 0.125 "/></g></g></g></svg>